<?xml version="1.0" encoding="UTF-8" standalone="no"?>
<svg
   xmlns:dc="http://purl.org/dc/elements/1.1/"
   xmlns:cc="http://creativecommons.org/ns#"
   xmlns:rdf="http://www.w3.org/1999/02/22-rdf-syntax-ns#"
   xmlns:svg="http://www.w3.org/2000/svg"
   xmlns="http://www.w3.org/2000/svg"
   xmlns:sodipodi="http://sodipodi.sourceforge.net/DTD/sodipodi-0.dtd"
   xmlns:inkscape="http://www.inkscape.org/namespaces/inkscape"
   inkscape:version="1.0 (4035a4fb49, 2020-05-01)"
   sodipodi:docname="Logo Praia Cambio &amp; turismo NUEVO CON CNPJ.svg"
   viewBox="0 0 646.37335 210.10667"
   height="210.10667"
   width="646.37335"
   xml:space="preserve"
   id="svg2"
   version="1.1"><metadata
     id="metadata8"><rdf:RDF><cc:Work
         rdf:about=""><dc:format>image/svg+xml</dc:format><dc:type
           rdf:resource="http://purl.org/dc/dcmitype/StillImage" /><dc:title></dc:title></cc:Work></rdf:RDF></metadata><defs
     id="defs6" /><sodipodi:namedview
     inkscape:current-layer="g10"
     inkscape:window-maximized="1"
     inkscape:window-y="28"
     inkscape:window-x="0"
     inkscape:cy="61.490827"
     inkscape:cx="468.93954"
     inkscape:zoom="0.92206772"
     showgrid="false"
     id="namedview4"
     inkscape:window-height="740"
     inkscape:window-width="1366"
     inkscape:pageshadow="2"
     inkscape:pageopacity="0"
     guidetolerance="10"
     gridtolerance="10"
     objecttolerance="10"
     borderopacity="1"
     bordercolor="#666666"
     pagecolor="#ffffff" /><g
     transform="matrix(1.3333333,0,0,-1.3333333,0,210.10667)"
     inkscape:label="ink_ext_XXXXXX"
     inkscape:groupmode="layer"
     id="g10"><g
       transform="scale(0.1)"
       id="g12"><path
         id="path14"
         style="fill:#2c3160;fill-opacity:1;fill-rule:evenodd;stroke:none"
         d="m 4822.51,415.891 c 1.22,3.668 1,6.5 -0.69,8.48 -1.14,0.981 -2.58,1.461 -4.29,1.469 -1.25,0 -2.64,-0.27 -4.2,-0.77 -3.66,-1.218 -6.95,-3.289 -9.86,-6.191 l -9.18,-9.18 -38.13,9.121 c -0.61,0.192 -1.19,0.039 -1.71,-0.461 l -7.35,-7.347 c -0.43,-0.422 -0.59,-0.93 -0.51,-1.543 0.11,-0.61 0.44,-1.071 0.97,-1.387 l 29.13,-15.992 -14.85,-14.86 -11.12,3.04 c -0.08,0.039 -0.24,0.062 -0.46,0.062 -0.54,0 -0.98,-0.172 -1.32,-0.523 l -5.51,-5.547 c -0.38,-0.461 -0.55,-0.942 -0.51,-1.442 0.07,-0.601 0.32,-1.039 0.74,-1.32 l 14.45,-10.84 10.84,-14.441 c 0.35,-0.43 0.8,-0.668 1.38,-0.75 h 0.11 c 0.53,0 0.97,0.172 1.32,0.511 l 5.51,5.5 c 0.5,0.54 0.64,1.141 0.45,1.79 l -3.04,11.121 14.86,14.859 16,-29.129 c 0.23,-0.5 0.64,-0.812 1.2,-0.922 0.12,-0.039 0.25,-0.07 0.4,-0.07 0.46,0 0.83,0.121 1.09,0.351 l 7.34,5.508 c 0.65,0.532 0.88,1.16 0.69,1.891 l -9.18,39.91 9.24,9.231 c 2.9,2.91 4.97,6.199 6.19,9.871 z m -37.72,34.871 c 34.81,0 63.04,-28.223 63.04,-63.043 0,-34.821 -28.23,-63.039 -63.04,-63.039 -34.83,0 -63.05,28.218 -63.05,63.039 0,34.82 28.22,63.043 63.05,63.043 v 0" /><path
         id="path16"
         style="fill:#2c3160;fill-opacity:1;fill-rule:evenodd;stroke:none"
         d="m 980.609,1575.82 c 406.901,0 741.741,-308.45 783.481,-704.285 3.3,-31.293 3.64,-32.004 37.13,-49.187 8.03,-4.118 15.9,-8.453 23.64,-13.215 14.88,-9.141 29.43,-19.715 42.85,-30.883 10.38,-8.641 21.67,-18.719 30.58,-28.887 26.87,-30.652 9.77,-71.543 -30.8,-74.851 -6.27,-0.508 -12.08,-1.446 -18.14,-3.235 -9.46,-2.793 -19.41,-7.324 -27.76,-12.597 -9.18,-5.789 -17.35,-13.055 -25.5,-20.176 -44.28,-38.711 -44.37,-15.117 -56.03,-58.652 -27.36,-102.09 -75.32,-198.731 -137.64,-284.243 9.83,-7.16 17.11,-18.539 21.69,-32.058 6.21,-18.301 11.09,-38.61 13.56,-57.789 2.57,-19.903 2.74,-41.621 -0.4,-61.481 -2.64,-16.73 -8.11,-35.34 -21.26,-46.9021 -8.12,-7.1601 -18.48,-11.1172 -29.34,-11.0078 -22.66,0.2305 -31.46,13.0195 -42.16,28.7189 -5.57,8.172 -12.78,16.672 -20.52,22.82 -8.74,6.93 -20,12.371 -30.49,15.981 -9.26,3.199 -16.93,4.441 -26.7,4.718 -4.07,0.129 -8.14,0.071 -12.21,-0.129 C 1322.7,59 1158.55,0 980.609,0 558.434,0 213.82,332.051 193.66,749.238 c -2.246,3.035 -4.73,6.563 -7.469,10.547 -12.031,17.528 -28.836,43.918 -38.8,80.039 -34.512,125.063 11.429,270.866 136.515,316.266 7.188,13.57 14.707,26.94 22.653,40.02 -7.809,-0.65 -15.633,-1.59 -23.395,-2.82 -27.215,-4.33 -53.648,-12.32 -64.266,-14.1 -10.613,-1.78 -5.398,2.67 5.903,10.17 11.293,7.5 28.672,18.05 35.437,23.83 6.774,5.78 2.942,6.78 -14.019,6.27 -16.957,-0.5 -47.039,-2.51 -75.039,-10.53 -28,-8 -53.914,-22 -70.801,-31.55 -16.8907,-9.56 -24.7501,-14.67 -24.5548,-11.76 0.1914,2.92 8.4336,13.84 19.6172,25.68 11.1836,11.83 25.3206,24.56 31.4886,30.89 6.172,6.33 4.383,6.26 -8.301,1.86 -12.691,-4.39 -36.2931,-13.1 -58.0313,-23.54 -21.7383,-10.42 -41.625,-22.58 -51.73051,-29.14 -10.10938,-6.58 -10.4375,-7.57 -6.61719,4.77 3.8125,12.34 11.7813,38 36.7813,72.74 77.6487,107.89 199.2927,134.23 323.9417,99.03 17.121,-4.84 32.48,-10.8 46.297,-17.46 12.039,12.68 24.511,24.91 37.359,36.76 -6.637,5.08 -12.191,8.99 -15.602,11.57 -7.488,5.68 -4.64,4.96 1.789,3.54 5.981,-1.32 15.063,-3.24 23.789,-6.07 4.293,3.83 8.618,7.61 12.993,11.34 -4.629,5.63 -9.989,11.78 -15.723,17.69 -13.055,13.46 -28.012,25.71 -46.625,35.2 -18.609,9.48 -40.863,16.2 -49.645,19.99 -8.785,3.8 -4.089,4.67 3.555,5.27 7.649,0.6 18.246,0.94 28.375,0.23 10.121,-0.7 19.762,-2.45 24.856,-2.04 5.089,0.41 5.632,2.97 -2.508,9.12 -8.145,6.17 -24.961,15.92 -42.445,22.54 -17.485,6.62 -35.641,10.1 -44.278,12.14 -8.648,2.04 -7.793,2.64 8.637,10.8 16.43,8.16 48.426,23.9 97.562,17.38 62.918,-8.35 108.926,-35.12 141.516,-73.68 118.941,72.09 258.496,113.59 407.734,113.59 v 0" /><path
         id="path18"
         style="fill:#168046;fill-opacity:1;fill-rule:evenodd;stroke:none"
         d="m 1030.24,138.602 c -198.474,38.75 -370.877,155.929 -480.818,320 32.004,-10.262 65.129,-18.032 99.141,-23.051 88.027,-64.41 194.261,-104.813 308.535,-112.371 26.965,-1.789 47.732,-5.559 70.942,10.73 21.18,14.879 33.73,38.61 42.65,62.262 3.35,8.91 5.24,14.937 8.19,15.027 2.94,0.09 6.94,-5.769 10.61,-13.347 9.93,-20.5 12.59,-46.801 11.71,-69.332 -0.48,-12.282 -2.35,-21.36 -2.99,-25.551 -0.65,-4.188 -0.07,-3.469 3.33,-1.059 13.83,9.789 20.38,17.238 29.03,31.871 2.6,4.399 2.51,4.758 9.18,6.207 15.84,3.442 29.78,7.563 45.4,12.844 122.77,41.547 227.39,122.477 298.82,227.754 l 27.13,4.305 c 23.7,3.761 50.04,7.277 73.94,3.894 24.5,-3.465 44.4,-14.894 61.37,-32.816 6.21,-6.571 11.85,-13.758 17.02,-21.18 l 15.35,-21.98 c -40.37,-102.368 -95.58,-184.547 -172.39,-260.008 31.24,-5.313 48.61,-1.5 70.89,13.301 20.82,-24.141 23.41,-83.954 18.48,-115.27 -2.01,-12.652 -5.31,-19.961 -7.52,-21.91 -2.21,-1.942 -3.31,1.5 -9,9.84 -5.69,8.347 -15.96,21.609 -29.11,32.058 -13.15,10.45 -29.19,18.071 -42.92,22.809 -13.73,4.742 -25.17,6.582 -39.16,7 -6.74,0.203 -14.08,0.07 -22.41,-0.598 -124.83,-94.062 -244.76,-94.742 -415.4,-61.429 z M 491.293,480.512 C 629.043,243.262 886,86.9805 1174.56,86.9805 c 29.04,0 57.7,1.6211 85.94,4.6797 -35.21,-14.1719 -71.74,-25.7383 -109.36,-34.4883 -54.78,-12.7422 -111.87,-19.4727 -170.527,-19.4727 -378.285,0 -691.121,279.9998 -742.695,644.0468 17.324,-23.281 36.23,-45.332 56.559,-65.976 55.949,-56.821 122.652,-103 196.816,-135.258 v 0" /><path
         id="path20"
         style="fill:#f0412a;fill-opacity:1;fill-rule:evenodd;stroke:none"
         d="m 443.004,1311.08 c 10.437,10.72 21.172,21.17 32.23,31.26 16.289,-16.51 31.661,-37.15 42.172,-55.69 10.922,-19.25 16.606,-36.23 19.856,-49.16 3.246,-12.92 4.054,-21.78 4.429,-26.31 0.372,-4.53 0.305,-4.73 -7.293,6.27 -7.593,11 -22.722,33.18 -49.171,58.95 -11.629,11.34 -25.45,23.37 -42.223,34.68 z m -109.152,-142.9 c 5.664,9.62 11.527,19.09 17.609,28.43 4.027,-0.25 8,-0.59 11.898,-1 25.008,-2.65 47.051,-8.63 63.934,-14.55 16.875,-5.91 28.602,-11.77 30.352,-13.79 1.757,-2.01 -6.446,-0.17 -31.942,1.99 -21.66,1.83 -55.793,3.89 -91.851,-1.08 z m 5.937,-543.934 c -25.996,24.219 -50,50.949 -71.621,80.012 l -36.957,49.676 c -0.504,11.269 -0.801,22.589 -0.801,33.976 0,13.07 0.336,26.067 0.996,38.977 l 0.024,-0.071 c 4.058,-13.355 10.093,-26.035 13.547,-33.074 3.445,-7.031 4.312,-8.418 4.339,5.285 0.028,13.711 -0.781,42.504 3.946,71.235 4.715,28.73 14.972,57.394 25.035,76.484 10.051,19.098 19.906,28.613 23.879,30.496 3.969,1.887 2.066,-3.879 0.66,-14.984 -1.41,-11.098 -2.316,-27.547 -1.391,-40.957 0.926,-13.399 3.7,-23.758 6.243,-21.516 2.55,2.246 4.894,17.09 18.765,48.891 19.844,45.492 44.879,78.124 71.621,99.674 6.832,-18.32 24.059,-31.76 44.828,-32.76 1.578,-0.08 3.133,-0.08 4.676,-0.01 C 381.707,896.203 336.195,741.578 339.789,624.246 Z m 640.82,913.864 c 39.341,0 77.951,-3.03 115.641,-8.87 l 45.42,-42.19 c 71.13,-66.05 123.92,-147.3 155.23,-236.64 -0.88,-0.57 -1.74,-1.14 -2.59,-1.72 -15.35,-10.29 -27.6,-21.66 -39.09,-36.09 -3.03,-3.8 -11.43,-15.72 -15.31,-18.11 -5.01,-3.06 -27.47,-7.09 -33.75,-8.53 -229.113,-52.3 -326.613,-245.198 -172,-440.894 10.93,-13.828 19.29,-27.793 40.39,-27.793 18.71,0 27.55,11.329 38.11,23.645 13.32,15.535 26.66,31.27 41.36,45.531 13.98,13.574 28.92,24.957 45.12,35.707 15.81,10.485 31.48,19.41 49.07,26.657 15.87,6.546 32.51,11.582 49.52,14.027 -13.78,-39.848 -31.72,-77.762 -53.3,-113.211 -19.66,6.609 -39.31,11.562 -54.03,14.668 -20.45,4.324 -31.32,5.086 -34.37,2.305 -3.03,-2.786 1.77,-9.094 9.83,-24.543 7.59,-14.532 18.05,-37.157 25.02,-66.719 C 1082.86,547.602 921.426,466.461 741.02,466.461 c -90.047,0 -177.168,20.41 -255.739,58.289 -51.218,130.844 -33.867,308.758 27.223,469.164 8.121,-6.742 18.406,-11 29.762,-11.547 18.91,-0.914 35.882,8.715 45.238,23.713 12.437,-37.76 8.984,-87.553 -20,-144.506 -13.375,-26.273 -21.856,-35.828 -21.949,-38.715 -0.09,-2.879 8.199,0.899 17.496,7.532 9.297,6.629 19.597,16.113 26.129,23.031 6.527,6.918 9.277,11.289 10.187,7.656 0.906,-3.625 -0.015,-15.234 -7.113,-32.144 -7.098,-16.911 -20.371,-39.121 -36.668,-57.743 -16.301,-18.625 -35.637,-33.644 -44.613,-41.066 -8.981,-7.422 -7.602,-7.234 -1.125,-5.691 6.472,1.531 18.054,4.414 29.011,8.953 10.965,4.551 21.297,10.754 27.477,14.797 6.18,4.043 8.199,5.918 7.012,3.203 -1.188,-2.727 -5.59,-10.039 -16.153,-22.297 -10.558,-12.246 -27.289,-29.442 -40.84,-40.762 -13.542,-11.328 -23.91,-16.765 -24.285,-19.531 -0.371,-2.774 9.239,-2.859 27.239,-1.289 143.175,12.48 269.23,163.41 196.476,303.012 -17.207,33.02 -41.949,59.77 -57.14,75.33 -15.188,15.58 -20.829,19.96 -18.559,19.9 2.277,-0.07 12.445,-4.59 25.449,-12.47 13,-7.88 28.828,-19.12 44.078,-34.09 15.258,-14.98 29.938,-33.698 41.797,-53.889 11.86,-20.192 20.895,-41.86 25.457,-49.781 4.567,-7.93 4.664,-2.102 3.488,9.363 -1.179,11.457 -3.636,28.562 -3.5,36.125 0.137,7.566 2.86,5.594 11.688,-5.809 8.828,-11.402 23.758,-32.226 33.625,-54.937 9.867,-22.696 14.684,-47.262 17.527,-63.5 2.852,-16.246 3.746,-24.16 5.555,-22.465 1.805,1.695 4.527,13.016 6.25,26.742 1.719,13.731 2.449,29.883 3.262,37.348 0.816,7.472 1.742,6.261 5.711,-4.442 3.972,-10.699 10.996,-30.89 15.898,-50.793 4.895,-19.902 7.66,-39.507 8.809,-49.699 1.152,-10.172 0.679,-10.918 6.711,-1.754 6.027,9.16 18.574,28.254 27.863,63.426 39.055,147.816 -76.234,291.525 -222.953,307.675 -31.188,3.43 -53.926,1.37 -65.25,0.41 -11.313,-0.95 -11.219,-0.8 -8.047,1.41 3.176,2.2 9.43,6.45 19.664,11.3 10.234,4.85 24.441,10.29 42.984,13.53 18.536,3.23 41.395,4.26 61.598,2.18 20.207,-2.08 37.746,-7.25 45.52,-9.1 7.765,-1.85 5.753,-0.37 1.347,3.08 -4.402,3.46 -11.195,8.88 -18.308,13.26 -7.118,4.38 -14.555,7.72 -18.801,9.72 -4.238,2 -5.297,2.66 1.992,3.29 7.293,0.64 22.93,1.25 38.809,-0.05 15.882,-1.29 32.007,-4.49 48.277,-11.58 16.277,-7.09 32.715,-18.06 39.945,-21.78 7.235,-3.72 5.266,-0.17 1.528,5.18 -3.731,5.35 -9.231,12.48 -15.164,18.74 -5.934,6.27 -12.286,11.65 -14.77,15.21 -2.48,3.56 -1.09,5.3 7.344,3.29 8.441,-2.01 23.926,-7.79 37.715,-15.69 13.789,-7.89 25.879,-17.92 31.882,-22.5 6.012,-4.57 5.946,-3.68 2.422,11.51 -3.515,15.19 -10.476,44.68 -41.297,73.41 -78.179,72.85 -170.574,64.31 -256.359,12.85 -0.184,4.35 -0.473,9.09 -0.863,14.27 -4.414,58.01 -17.989,112.44 -44.215,156.63 112.738,67.76 244.742,106.74 385.855,106.74 v 0" /><path
         id="path22"
         style="fill:#f36824;fill-opacity:1;fill-rule:evenodd;stroke:none"
         d="m 1283.83,1284.3 c 4.7,-11.16 9.06,-22.46 13.07,-33.89 -0.88,-0.57 -1.74,-1.14 -2.59,-1.72 -15.35,-10.29 -27.6,-21.66 -39.09,-36.09 -3.03,-3.8 -11.43,-15.72 -15.31,-18.11 -5.01,-3.06 -27.47,-7.09 -33.75,-8.53 -229.113,-52.3 -326.613,-245.198 -172,-440.894 10.93,-13.828 19.29,-27.793 40.39,-27.793 18.71,0 27.55,11.329 38.11,23.645 13.32,15.535 26.66,31.27 41.36,45.531 13.98,13.574 28.92,24.957 45.12,35.707 15.81,10.485 31.48,19.41 49.07,26.657 15.87,6.546 32.51,11.582 49.52,14.027 -13.78,-39.848 -31.72,-77.762 -53.3,-113.211 -19.66,6.609 -39.31,11.562 -54.03,14.668 -20.45,4.324 -31.32,5.086 -34.37,2.305 -3.03,-2.786 1.77,-9.094 9.83,-24.543 7.59,-14.532 18.05,-37.157 25.02,-66.719 C 1082.86,547.602 921.426,466.461 741.02,466.461 c -90.055,0 -177.172,20.43 -255.743,58.309 -51.214,130.835 -33.863,308.746 27.227,469.144 8.121,-6.742 18.406,-11 29.762,-11.547 18.91,-0.914 35.882,8.715 45.238,23.713 12.437,-37.76 8.984,-87.553 -20,-144.506 -13.375,-26.273 -21.856,-35.828 -21.949,-38.715 -0.09,-2.879 8.199,0.899 17.496,7.532 9.297,6.629 19.597,16.113 26.129,23.031 6.527,6.918 9.277,11.289 10.187,7.656 0.906,-3.625 -0.015,-15.234 -7.113,-32.144 -7.098,-16.911 -20.371,-39.121 -36.668,-57.743 -16.301,-18.625 -35.637,-33.644 -44.613,-41.066 -8.981,-7.422 -7.602,-7.234 -1.125,-5.691 6.472,1.531 18.054,4.414 29.011,8.953 10.965,4.551 21.297,10.754 27.477,14.797 6.18,4.043 8.199,5.918 7.012,3.203 -1.188,-2.727 -5.59,-10.039 -16.153,-22.297 -10.558,-12.246 -27.289,-29.442 -40.84,-40.762 -13.542,-11.328 -23.91,-16.765 -24.285,-19.531 -0.371,-2.774 9.239,-2.859 27.239,-1.289 143.175,12.48 269.23,163.41 196.476,303.012 -17.207,33.02 -41.949,59.77 -57.14,75.33 -15.188,15.58 -20.829,19.96 -18.559,19.9 2.277,-0.07 12.445,-4.59 25.449,-12.47 13,-7.88 28.828,-19.12 44.078,-34.09 15.258,-14.98 29.938,-33.698 41.797,-53.889 11.86,-20.192 20.895,-41.86 25.457,-49.781 4.567,-7.93 4.664,-2.102 3.488,9.363 -1.179,11.457 -3.636,28.562 -3.5,36.125 0.137,7.566 2.86,5.594 11.688,-5.809 8.828,-11.402 23.758,-32.226 33.625,-54.937 9.867,-22.696 14.684,-47.262 17.527,-63.5 2.852,-16.246 3.746,-24.16 5.555,-22.465 1.805,1.695 4.527,13.016 6.25,26.742 1.719,13.731 2.449,29.883 3.262,37.348 0.816,7.472 1.742,6.261 5.711,-4.442 3.972,-10.699 10.996,-30.89 15.898,-50.793 4.895,-19.902 7.66,-39.507 8.809,-49.699 1.152,-10.172 0.679,-10.918 6.711,-1.754 6.027,9.16 18.574,28.254 27.863,63.426 39.055,147.816 -76.234,291.525 -222.953,307.675 -31.188,3.43 -53.926,1.37 -65.25,0.41 -11.313,-0.95 -11.219,-0.8 -8.047,1.41 3.176,2.2 9.43,6.45 19.664,11.3 10.234,4.85 24.441,10.29 42.984,13.53 18.536,3.23 41.395,4.26 61.598,2.18 20.207,-2.08 37.746,-7.25 45.52,-9.1 7.765,-1.85 5.753,-0.37 1.347,3.08 -4.402,3.46 -11.195,8.88 -18.308,13.26 -7.118,4.38 -14.555,7.72 -18.801,9.72 -4.238,2 -5.297,2.66 1.992,3.29 7.293,0.64 22.93,1.25 38.809,-0.05 15.882,-1.29 32.007,-4.49 48.277,-11.58 16.277,-7.09 32.715,-18.06 39.945,-21.78 7.235,-3.72 5.266,-0.17 1.528,5.18 -3.731,5.35 -9.231,12.48 -15.164,18.74 -5.934,6.27 -12.286,11.65 -14.77,15.21 -2.48,3.56 -1.09,5.3 7.344,3.29 8.441,-2.01 23.926,-7.79 37.715,-15.69 13.789,-7.89 25.879,-17.92 31.882,-22.5 6.012,-4.57 5.946,-3.68 2.422,11.51 -3.515,15.19 -10.476,44.68 -41.297,73.41 -25.589,23.85 -52.707,38.97 -80.617,46.72 151.207,60.11 320.786,55.93 468.256,-10.04 v 0" /><path
         id="path24"
         style="fill:#fab412;fill-opacity:1;fill-rule:evenodd;stroke:none"
         d="m 1330.25,1269.2 c -16,44.09 -36.81,85.88 -61.8,124.72 49.05,-27.7 93.46,-62.66 131.78,-103.41 -5.63,0.68 -11.51,0.17 -17.42,-1.31 -11.79,-2.94 -22.84,-6.76 -34.04,-11.52 -6.07,-2.58 -12.3,-5.43 -18.52,-8.48 z m 379.37,-303.587 c -43.8,49.837 -99.57,99.727 -155.83,135.137 -53.16,155.92 -177.45,289.49 -329.21,353.21 -17.73,21.49 -36.85,41.78 -57.25,60.73 264.76,-67.82 477.45,-282.16 542.29,-549.077 z M 1433.3,1251.96 c 29.71,-37.99 54.57,-79.97 73.64,-124.98 l -2.12,1.05 c -21.41,10.49 -43.3,19.82 -65.37,28.82 -3.67,1.5 -7.39,3.08 -11.12,4.4 -5.96,2.11 -12.08,3.03 -18.01,2.63 0.21,11.78 1.72,24.06 4.42,34.87 2.78,11.12 7.01,21.01 12.11,31.2 3.62,7.24 6.09,14.65 6.45,22.01 z m -413.89,-166.41 c -79.687,-87.011 -85.859,-213.144 14.75,-340.484 10.93,-13.828 19.29,-27.793 40.39,-27.793 18.71,0 27.55,11.329 38.11,23.645 13.32,15.535 26.66,31.27 41.36,45.531 13.98,13.574 28.92,24.957 45.12,35.707 15.81,10.485 31.48,19.41 49.07,26.657 15.87,6.546 32.51,11.582 49.52,14.027 -13.78,-39.848 -31.72,-77.762 -53.3,-113.211 l -0.04,0.019 -0.88,0.293 -0.4,0.137 -0.52,0.164 -0.76,0.254 -0.16,0.059 -0.92,0.293 -0.2,0.07 -0.72,0.234 -0.56,0.176 -0.36,0.117 -0.92,0.293 h -0.01 l -0.91,0.293 -0.36,0.117 -0.56,0.176 -0.71,0.223 -0.21,0.058 -0.91,0.293 -0.16,0.04 -0.75,0.234 -0.52,0.156 -0.4,0.125 -0.86,0.266 -0.05,0.011 -0.91,0.274 -0.31,0.098 -0.6,0.175 -0.65,0.196 -0.25,0.066 -0.91,0.274 -0.1,0.031 -0.8,0.234 -0.45,0.137 -0.45,0.125 -0.8,0.234 -0.1,0.02 -0.9,0.254 -0.25,0.078 -0.64,0.176 -0.6,0.175 -0.28,0.078 -0.89,0.247 -0.07,0.015 -0.82,0.238 -0.41,0.106 -0.47,0.137 -0.75,0.207 -0.13,0.027 -0.87,0.246 -0.21,0.059 -0.67,0.176 -0.54,0.144 -0.33,0.09 -0.86,0.234 h -0.02 l -0.84,0.223 -0.36,0.098 -0.5,0.128 -0.68,0.176 -0.17,0.047 -0.85,0.227 -0.17,0.039 -0.68,0.176 -0.49,0.125 -0.35,0.089 -0.82,0.204 -0.02,0.011 -0.83,0.203 -0.3,0.078 -0.53,0.137 -0.62,0.156 -0.2,0.051 -0.82,0.203 -0.12,0.032 -0.7,0.164 -0.43,0.105 -0.38,0.09 -0.74,0.187 -0.06,0.008 -0.8,0.196 -0.25,0.058 -0.55,0.125 -0.55,0.141 -0.24,0.047 -0.77,0.195 -0.08,0.012 -0.7,0.164 -0.38,0.09 -0.4,0.097 -0.66,0.145 -0.1,0.027 -0.76,0.168 -0.2,0.051 -0.55,0.125 -0.49,0.109 -0.26,0.059 -0.74,0.164 -0.03,0.012 -0.7,0.156 -0.33,0.066 -0.4,0.09 -0.6,0.137 -0.12,0.019 -0.72,0.157 -0.15,0.027 -0.55,0.129 -0.43,0.086 -0.28,0.058 -0.69,0.149 c -20.45,4.324 -31.32,5.086 -34.37,2.305 -3.03,-2.786 1.77,-9.094 9.83,-24.543 l 0.36,-0.684 0.02,-0.047 0.34,-0.656 0.05,-0.078 0.32,-0.633 0.07,-0.129 0.3,-0.594 0.09,-0.175 0.28,-0.559 0.12,-0.223 0.26,-0.519 0.14,-0.282 0.24,-0.48 0.16,-0.332 0.22,-0.438 0.19,-0.382 0.19,-0.399 0.22,-0.441 0.17,-0.352 0.25,-0.496 0.14,-0.305 0.27,-0.554 0.13,-0.266 0.29,-0.605 0.11,-0.215 0.32,-0.684 0.08,-0.156 0.34,-0.742 0.06,-0.117 0.37,-0.801 0.03,-0.059 0.4,-0.871 v 0 l 0.41,-0.887 0.03,-0.046 0.38,-0.84 0.05,-0.11 0.36,-0.808 0.08,-0.156 0.33,-0.754 0.1,-0.223 0.32,-0.715 0.12,-0.273 0.29,-0.664 0.15,-0.352 0.26,-0.605 0.18,-0.411 0.24,-0.554 0.2,-0.469 0.21,-0.5 0.23,-0.535 0.19,-0.449 0.25,-0.606 0.17,-0.39 0.41,-1.008 0.31,-0.75 0.11,-0.274 0.33,-0.82 0.09,-0.219 0.35,-0.887 0.06,-0.144 0.38,-0.969 0.04,-0.086 0.4,-1.047 0.01,-0.019 0.42,-1.074 0.02,-0.047 0.39,-1.035 0.05,-0.118 0.36,-0.976 0.07,-0.188 0.34,-0.925 0.1,-0.254 0.31,-0.86 0.13,-0.332 0.28,-0.801 0.14,-0.402 0.27,-0.73 0.16,-0.481 0.24,-0.672 0.2,-0.558 0.21,-0.606 0.21,-0.625 0.18,-0.547 0.4,-1.179 0.27,-0.793 0.14,-0.399 0.28,-0.879 0.11,-0.324 0.3,-0.957 0.09,-0.262 0.33,-1.035 0.05,-0.187 0.35,-1.133 0.04,-0.106 0.37,-1.21 0.01,-0.04 0.38,-1.25 0.01,-0.05 0.37,-1.219 0.03,-0.117 0.34,-1.164 0.06,-0.196 0.31,-1.082 0.08,-0.285 0.28,-1.023 0.11,-0.364 0.26,-0.937 0.12,-0.457 0.23,-0.871 0.15,-0.535 0.21,-0.793 0.16,-0.625 0.19,-0.711 0.18,-0.715 0.16,-0.633 0.2,-0.801 0.14,-0.558 0.22,-0.899 0.11,-0.476 0.24,-0.989 0.09,-0.39 C 1082.86,547.602 921.426,466.461 741.02,466.461 c -28.247,0 -56.207,2.019 -83.696,5.949 -18.328,88.371 -13.726,180.215 13.203,266.242 38.024,37.286 63.332,85.786 66.203,137.481 11.032,16.301 23.059,32.101 36.079,47.312 1.593,-3.3 2.957,-6.015 4.058,-7.925 4.567,-7.93 4.664,-2.102 3.488,9.363 -0.207,1.992 -0.445,4.152 -0.707,6.414 4.813,5.406 9.774,10.723 14.848,15.973 8.652,-11.903 19.781,-28.852 27.672,-47.008 9.867,-22.696 14.684,-47.262 17.527,-63.5 2.852,-16.246 3.746,-24.16 5.555,-22.465 1.805,1.695 4.527,13.016 6.25,26.742 1.719,13.731 2.449,29.883 3.262,37.348 0.816,7.472 1.742,6.261 5.711,-4.442 3.972,-10.699 10.996,-30.89 15.898,-50.793 4.895,-19.902 7.66,-39.507 8.809,-49.699 1.152,-10.172 0.679,-10.918 6.711,-1.754 6.027,9.16 18.574,28.254 27.863,63.426 17.934,67.863 3.316,134.848 -31.922,189.025 41.512,26.92 85.824,47.35 131.578,61.4 v 0" /><path
         id="path26"
         style="fill:#ffffff;fill-opacity:1;fill-rule:evenodd;stroke:none"
         d="m 974.207,1464.42 c 27.643,-89.99 10.137,-72.49 100.123,-100.13 -89.986,-27.64 -72.48,-10.14 -100.123,-100.13 -27.637,89.99 -10.144,72.49 -100.125,100.13 89.984,27.64 72.484,10.15 100.125,100.13 z M 1103.4,1352.79 c 14.16,-46.11 5.19,-37.14 51.3,-51.3 -46.11,-14.17 -37.14,-5.2 -51.3,-51.31 -14.17,46.11 -5.21,37.14 -51.32,51.31 46.12,14.16 37.15,5.19 51.32,51.3 z m 665.03,-682.645 c 7.54,6.593 18.29,16.23 30.72,24.082 12.43,7.843 26.53,13.886 38.3,17.363 11.77,3.476 21.21,4.375 26.64,4.816 5.42,0.438 6.82,0.43 2.59,5.254 -4.23,4.824 -14.11,14.5 -25.85,24.278 -11.75,9.773 -25.35,19.636 -37.98,27.39 -12.63,7.766 -24.27,13.422 -30.17,16.301 -5.89,2.875 -6.04,2.961 -6.62,-5.402 -0.59,-8.36 -1.61,-25.164 -3.29,-41.387 -1.68,-16.211 -4.03,-31.836 -6.24,-45.012 -2.21,-13.172 -4.29,-23.883 -5.37,-29.832 -1.08,-5.937 -1.16,-7.109 -0.81,-8.23 0.35,-1.114 1.14,-2.188 3.69,-0.957 2.55,1.226 6.85,4.754 14.39,11.336 z m -40.25,54.503 c -4.88,-58.234 -16.42,-114.57 -33.83,-168.269 -6.37,9.121 -13.27,17.812 -20.57,25.516 -48.67,51.394 -103.55,50.574 -168.6,40.234 l -17.78,-2.824 0.16,7.148 c 0.17,7.149 0.5,21.445 5.16,39.406 10.9,42.071 34.7,79.121 72.83,101.094 19.61,11.309 43.56,19.617 55.53,23.774 l 11.97,4.16 -3.99,0.996 c -3.99,0.996 -11.97,2.996 -25.44,2.328 -13.47,-0.664 -32.42,-3.988 -41.9,-5.652 l -9.64,-1.661 c -0.17,0 -0.37,0.141 -12.48,11.137 -128.09,116.43 -276.69,139.547 -411.85,11.473 -17.32,-16.418 -34.75,-37.57 -43.72,-48.051 -8.98,-10.477 -9.31,-10.477 -9.48,-10.477 -0.17,0 -0.17,0 -10.81,13.465 -136.248,172.434 -54.1,333.985 150.81,380.765 21.11,4.82 34.75,6.81 45.06,13.13 10.31,6.32 17.29,16.96 25.11,26.77 23.83,29.93 70.38,54.31 107.24,63.52 4.66,1.16 4.66,1.16 1.16,-5.83 -3.49,-6.97 -10.47,-20.94 -14.96,-38.9 -14.51,-58.05 -0.66,-118.13 41.23,-161.61 13.14,-13.64 28.1,-23.28 35.75,-28.11 7.65,-4.82 7.98,-4.82 2.66,4 -5.32,8.8 -16.29,26.43 -24.44,43.39 -8.15,16.96 -13.47,33.26 -16.46,43.4 -2.99,10.14 -3.66,14.14 -3.99,16.13 -0.33,1.99 -0.33,1.99 12.3,-3.16 12.64,-5.15 37.91,-15.47 63.02,-27.77 25.1,-12.3 50.05,-26.6 80.31,-49.38 22.16,-16.68 47.17,-37.91 70.6,-60.29 98.96,-94.547 100.18,-126.801 89.04,-259.852 v 0" /><path
         id="path28"
         style="fill:#e0dddb;fill-opacity:1;fill-rule:evenodd;stroke:none"
         d="m 1168.2,1084.32 c -17.79,-7.98 -36.08,-18.29 -51.55,-30.93 -15.45,-12.64 -28.09,-27.6 -37.4,-42.23 -9.31,-14.633 -15.3,-28.93 -14.8,-33.754 0.5,-4.82 7.48,-0.164 20.62,9.145 13.13,9.312 32.41,23.279 51.7,32.419 19.29,9.15 38.58,13.47 53.04,14.64 14.47,1.16 24.11,-0.84 29.94,-3.16 5.82,-2.33 7.81,-4.99 4.98,-9.15 -2.82,-4.15 -10.47,-9.81 -22.78,-20.12 -12.3,-10.309 -29.26,-25.27 -43.89,-42.231 -14.63,-16.957 -26.94,-35.91 -36.42,-53.867 -9.47,-17.961 -16.12,-34.918 -19.61,-44.727 -3.5,-9.816 -3.83,-12.472 -2.17,-13.14 1.67,-0.664 5.32,0.668 16.79,8.98 11.48,8.317 30.77,23.614 52.88,37.41 22.11,13.801 47.06,26.106 73.16,33.922 26.1,7.817 53.37,11.137 81.14,10.641 27.77,-0.5 56.03,-4.824 70.5,-6.816 14.46,-1.997 15.13,-1.664 14.46,0.496 -0.66,2.164 -2.66,6.152 -14.46,13.3 -11.81,7.149 -33.42,17.461 -53.87,25.606 -20.46,8.152 -39.74,14.137 -47.39,18.125 -7.65,3.988 -3.66,5.988 7.15,12.641 10.81,6.65 28.43,17.95 38.07,24.11 9.65,6.15 11.31,7.15 10.31,9.14 -0.99,2 -4.66,4.99 -18.12,9.81 -13.47,4.82 -36.75,11.47 -57.03,15.96 -20.29,4.49 -37.58,6.82 -48.72,7.98 -11.14,1.17 -16.13,1.17 -13.53,4.72 2.6,3.55 12.79,10.65 24.12,15.95 11.33,5.3 23.8,8.79 27.27,11.28 3.47,2.48 -2.05,3.96 -10.55,4.32 -8.51,0.35 -19.99,-0.41 -34.37,-3.63 -14.38,-3.21 -31.68,-8.86 -49.47,-16.84 v 0" /><path
         id="path30"
         style="fill:#0aa44d;fill-opacity:1;fill-rule:evenodd;stroke:none"
         d="M 1260.5,91.6602 C 1225.29,77.4883 1188.76,65.9219 1151.14,57.1719 771.684,25.7891 418.598,254.852 294.477,615.77 350.426,558.949 417.129,512.77 491.293,480.512 629.043,243.262 886,86.9805 1174.56,86.9805 c 29.04,0 57.7,1.6211 85.94,4.6797 z M 636.945,437.371 c 3.864,-0.633 7.739,-1.25 11.618,-1.82 88.027,-64.41 194.261,-104.813 308.535,-112.371 26.965,-1.789 47.732,-5.559 70.942,10.73 21.18,14.879 33.73,38.61 42.65,62.262 3.35,8.91 5.24,14.937 8.19,15.027 2.94,0.09 6.94,-5.769 10.61,-13.347 9.93,-20.5 12.59,-46.801 11.71,-69.332 -0.47,-12.282 -2.35,-21.36 -2.99,-25.551 -0.65,-4.18 -0.07,-3.457 3.33,-1.059 13.83,9.789 20.38,17.238 29.03,31.871 2.6,4.399 2.51,4.758 9.18,6.207 15.84,3.442 29.78,7.563 45.4,12.844 122.77,41.547 227.39,122.477 298.82,227.754 l 27.13,4.305 c 23.7,3.761 50.05,7.277 73.94,3.894 24.5,-3.465 44.4,-14.894 61.37,-32.816 6.21,-6.571 11.86,-13.758 17.02,-21.18 l 15.35,-21.969 c -40.37,-102.379 -95.58,-184.558 -172.39,-260.019 31.25,-5.313 48.61,-1.5 70.89,13.301 20.82,-24.141 23.42,-83.954 18.48,-115.27 -2.01,-12.641 -5.31,-19.961 -7.51,-21.91 -2.22,-1.942 -3.32,1.5 -9,9.84 -5.7,8.347 -15.97,21.609 -29.12,32.058 -13.15,10.45 -29.19,18.071 -42.92,22.809 -13.73,4.742 -25.17,6.582 -39.16,7 -6.74,0.203 -14.09,0.07 -22.41,-0.598 -5.87,-4.429 -11.74,-8.652 -17.6,-12.672 C 1325.82,136.52 1220.13,141 1080.46,168.27 903.18,202.879 746.691,300.082 636.945,437.371 v 0" /><path
         id="path32"
         style="fill:#1f6eaf;fill-opacity:1;fill-rule:evenodd;stroke:none"
         d="m 721.859,429.051 c 6.368,-0.192 12.75,-0.289 19.161,-0.289 181.269,0 344.55,76.988 458.95,200.035 22.8,24.523 28.23,28.613 19.09,63.801 -2.51,9.644 -6.14,17.957 -9.45,24.297 -3.3,6.335 -6.29,10.71 -6.18,13.125 0.11,2.39 3.31,2.832 10.28,0.3 6.97,-2.527 17.71,-8.015 27.12,-14.129 9.42,-6.105 17.5,-12.824 24.45,-20.031 6.54,-6.765 12.6,-14.394 17.79,-22.254 5.43,12.84 3.81,41.211 -7.76,54.004 30.21,46.27 45.22,82.102 62.45,135.762 17.73,-1.594 35.63,-5.442 52.13,-10.328 24.59,-7.289 46.97,-17.395 68.13,-31.973 19.78,-13.633 37.7,-30.012 55.26,-46.344 -9.7,-9.043 -18.37,-19.187 -26.03,-30.527 -13.86,-20.496 -24.83,-45.273 -31.03,-69.18 -4.16,-16.062 -5.97,-31.472 -6.35,-47.996 l -0.85,-36.496 c -74.48,-105.18 -184.68,-183.246 -312.93,-216.578 -6.76,20.039 -15.69,39.602 -26.91,58.32 -11.9,19.828 -24.87,35.192 -34.43,34.961 -20.02,-0.492 -31.15,-77.051 -71.74,-111.031 -2.24,-0.031 -4.487,-0.051 -6.737,-0.051 -99.839,0 -193.5,26.41 -274.414,72.602 v 0" /><path
         id="path34"
         style="fill:#1d8bd4;fill-opacity:1;fill-rule:evenodd;stroke:none"
         d="m 866.133,441.262 c 130.613,26.468 246.477,93.57 333.837,187.535 22.8,24.523 28.23,28.613 19.09,63.789 -2.51,9.656 -6.14,17.969 -9.45,24.309 -3.3,6.335 -6.29,10.71 -6.17,13.113 0.1,2.402 3.3,2.844 10.27,0.312 6.97,-2.527 17.71,-8.027 27.12,-14.129 9.42,-6.105 17.5,-12.824 24.45,-20.031 6.54,-6.765 12.61,-14.394 17.79,-22.254 5.43,12.852 3.81,41.211 -7.76,54.004 30.21,46.27 45.21,82.102 62.45,135.762 17.74,-1.594 35.63,-5.438 52.13,-10.328 24.59,-7.297 46.97,-17.395 68.13,-31.973 19.78,-13.633 37.7,-30.012 55.26,-46.344 -9.7,-9.043 -18.37,-19.187 -26.03,-30.527 -13.86,-20.496 -24.83,-45.273 -31.03,-69.18 -4.16,-16.062 -5.97,-31.472 -6.35,-47.996 l -0.85,-36.496 c -34.12,-48.187 -75.73,-90.668 -123.15,-125.777 -61.21,-32.582 -129.37,-53.813 -201.68,-60.903 -4.45,9.661 -9.44,19.141 -15.01,28.422 -11.9,19.828 -24.87,35.192 -34.43,34.961 -13.03,-0.312 -22.3,-32.859 -38.36,-64.91 -59.89,3.731 -117.163,17.098 -170.257,38.641 v 0" /><path
         id="path36"
         style="fill:#2c3160;fill-opacity:1;fill-rule:nonzero;stroke:none"
         d="m 2260.77,1018.95 h 102.05 c 14.84,0 23.15,7.84 24.95,23.09 l 23.07,185.34 c 0.24,2.48 0.28,4.74 0.15,6.6 -0.78,10.93 -7.57,16.49 -19.94,16.49 h -102.04 l -28.24,-231.52 z m 643,231.53 -28.23,-231.52 h 102.04 c 14.85,0 23.16,7.84 24.95,23.09 l 23.08,185.34 c 0.23,2.47 0.28,4.74 0.15,6.59 -0.79,10.93 -7.57,16.5 -19.94,16.5 h -102.05 z m -48.89,-398.714 -37.27,-301.407 h -193.17 l 106.66,866.691 h 328.61 c 70.13,-0.41 115.5,-12.16 136.13,-35.66 13.93,-16.09 21.88,-37.93 23.86,-65.77 0.98,-13.6 0.43,-29.07 -1.45,-45.97 l -26.11,-209.46 c -6.1,-50.3 -32.71,-87.612 -79.65,-111.733 -11.81,-4.953 -18.1,-9.277 -19.04,-13.406 l 0.05,-0.613 c 0.21,-3.098 5.66,-7.219 15.9,-11.958 36.45,-19.796 56,-48.242 58.63,-85.148 0.61,-8.445 0.42,-17.312 -0.57,-26.59 L 3135.3,550.359 h -193.17 l 34.57,278.528 c 0.26,2.265 0.3,4.535 0.15,6.593 -0.78,10.926 -7.55,16.286 -19.92,16.286 h -102.05 z m 627.05,565.284 h 307.37 l 50.44,-866.691 h -193.37 l -7.96,163.692 h -178.12 l -48.74,-163.692 h -193.37 l 263.75,866.691 z m 136.26,-147.4 -108.11,-389.431 h 118.96 l -10.85,389.431 z m 406.13,147.4 H 4217.7 L 4110.84,550.359 h -193.17 l 106.65,866.691 z m 437.27,0 h 307.38 l 50.44,-866.691 h -193.38 l -7.96,163.692 h -178.11 l -48.75,-163.692 h -193.37 l 263.75,866.691 z m 136.26,-147.4 -108.1,-389.431 h 118.96 l -10.86,389.431 z M 2240.07,852.383 2202.85,550.359 h -193.17 l 106.65,866.691 h 334.59 c 70.13,-0.42 115.49,-12.17 136.13,-35.67 13.93,-16.08 22.08,-37.93 24.07,-65.76 0.97,-13.61 0.43,-29.07 -1.67,-45.98 l -33.33,-269.855 c -6.52,-50.305 -22.83,-87.617 -49.35,-111.734 -26.98,-23.508 -75.41,-35.258 -145.48,-35.668 h -141.22 v 0" /><path
         id="path38"
         style="fill:#2c3160;fill-opacity:1;fill-rule:evenodd;stroke:none"
         d="m 3010.14,389.281 c 1.77,-2.98 2.66,-6.48 2.66,-10.461 0,-6.129 -1.83,-11.23 -5.47,-15.308 -3.65,-4.09 -8.92,-6.5 -15.8,-7.223 v -10.488 h -8.77 v 10.429 c -11.49,1.18 -18.6,7.86 -21.33,20.02 l 13.56,3.531 c 1.26,-7.633 5.42,-11.449 12.49,-11.449 3.31,0 5.75,0.809 7.31,2.438 1.55,1.64 2.32,3.609 2.32,5.929 0,2.403 -0.77,4.223 -2.32,5.449 -1.56,1.243 -5.02,2.801 -10.39,4.704 -4.83,1.668 -8.6,3.32 -11.31,4.968 -2.71,1.629 -4.92,3.91 -6.62,6.86 -1.68,2.949 -2.54,6.39 -2.54,10.289 0,5.133 1.52,9.761 4.54,13.871 3.03,4.09 7.78,6.601 14.29,7.519 v 8.102 h 8.77 v -8.109 c 9.8,-1.172 16.16,-6.723 19.04,-16.653 l -12.09,-4.949 c -2.35,6.809 -6,10.199 -10.93,10.199 -2.48,0 -4.47,-0.758 -5.96,-2.269 -1.5,-1.532 -2.26,-3.371 -2.26,-5.539 0,-2.211 0.72,-3.903 2.18,-5.082 1.43,-1.168 4.53,-2.629 9.28,-4.379 5.21,-1.899 9.3,-3.692 12.25,-5.391 2.97,-1.687 5.33,-4.039 7.1,-7.008 z m -23.03,65.969 c 34.87,0 63.13,-28.262 63.13,-63.121 0,-34.867 -28.26,-63.141 -63.13,-63.141 -34.86,0 -63.13,28.274 -63.13,63.141 0,34.859 28.27,63.121 63.13,63.121 v 0" /><g
         transform="scale(10)"
         id="g40"><text
           id="text44"
           style="font-variant:normal;font-weight:900;font-size:16px;font-family:Arial;-inkscape-font-specification:Arial-Black;writing-mode:lr-tb;fill:#2c3160;fill-opacity:1;fill-rule:nonzero;stroke:none"
           transform="matrix(1,0,0,-1,199.249,33.4398)"><tspan
             id="tspan42"
             sodipodi:role="line"
             y="0"
             x="0 10.578588 14.938448 26.407663 30.768013 42.236813 46.59716 58.94965 63.309021 73.888123 78.247498 88.826591 110.62641 122.09521 126.45554 137.03363 141.39398 151.97308 160.69281 173.94281 182.66255 193.24165 197.60197 209.95358 214.3139 225.7827 230.14308 235.39409 239.75348 250.33258 254.69197 268.81793">T R A N S P R T E &amp; T U R I S M </tspan></text></g><g
         transform="scale(10)"
         id="g46"><text
           id="text50"
           style="font-variant:normal;font-weight:900;font-size:14px;font-family:Arial;-inkscape-font-specification:Arial-Black;writing-mode:lr-tb;fill:#f0412a;fill-opacity:1;fill-rule:nonzero;stroke:none"
           transform="matrix(1,0,0,-1,233.592,13.7809)"><tspan
             id="tspan48"
             sodipodi:role="line"
             y="0"
             x="0 10.275398 14.083029 24.891611 28.699217 35.324211 39.131817 47.616203 55.246063 63.729473 72.21386 76.021469 84.505875 92.989288 101.47367 105.28812 109.09669 117.58011 126.0645 134.54791 138.36333 141.39848 145.21391 153.69731 162.1817 170.66513 179.14948 182.96391 186.77251 190.58694 199.07132">C.N.P.J 27.124 .655 / 0002 - 09</tspan></text></g></g></g></svg>
