<?xml version="1.0" encoding="UTF-8" standalone="no"?>
<svg
   xmlns:dc="http://purl.org/dc/elements/1.1/"
   xmlns:cc="http://creativecommons.org/ns#"
   xmlns:rdf="http://www.w3.org/1999/02/22-rdf-syntax-ns#"
   xmlns:svg="http://www.w3.org/2000/svg"
   xmlns="http://www.w3.org/2000/svg"
   xmlns:sodipodi="http://sodipodi.sourceforge.net/DTD/sodipodi-0.dtd"
   xmlns:inkscape="http://www.inkscape.org/namespaces/inkscape"
   inkscape:version="1.0.1 (3bc2e813f5, 2020-09-07, custom)"
   sodipodi:docname="praia-borde.svg"
   viewBox="0 0 646.37335 210.10667"
   height="210.10667"
   width="646.37335"
   xml:space="preserve"
   id="svg2"
   version="1.1"><metadata
     id="metadata8"><rdf:RDF><cc:Work
         rdf:about=""><dc:format>image/svg+xml</dc:format><dc:type
           rdf:resource="http://purl.org/dc/dcmitype/StillImage" /><dc:title></dc:title></cc:Work></rdf:RDF></metadata><defs
     id="defs6" /><sodipodi:namedview
     inkscape:current-layer="g10"
     inkscape:window-maximized="1"
     inkscape:window-y="35"
     inkscape:window-x="0"
     inkscape:cy="84.079347"
     inkscape:cx="348.9544"
     inkscape:zoom="1.8441354"
     showgrid="false"
     id="namedview4"
     inkscape:window-height="1045"
     inkscape:window-width="1920"
     inkscape:pageshadow="2"
     inkscape:pageopacity="0"
     guidetolerance="10"
     gridtolerance="10"
     objecttolerance="10"
     borderopacity="1"
     bordercolor="#666666"
     pagecolor="#ffffff"
     inkscape:document-rotation="0" /><g
     transform="matrix(1.3333333,0,0,-1.3333333,0,210.10667)"
     inkscape:label="ink_ext_XXXXXX"
     inkscape:groupmode="layer"
     id="g10"><path
       id="path14"
       style="fill:#2c3160;fill-opacity:1;fill-rule:evenodd;stroke:none;stroke-width:0.1"
       d="m 482.251,41.5891 c 0.122,0.3668 0.1,0.65 -0.069,0.848 -0.114,0.0981 -0.258,0.1461 -0.429,0.1469 -0.125,0 -0.264,-0.027 -0.42,-0.077 -0.366,-0.1218 -0.695,-0.3289 -0.986,-0.6191 l -0.918,-0.918 -3.813,0.9121 c -0.061,0.0192 -0.119,0.0039 -0.171,-0.0461 l -0.735,-0.7347 c -0.043,-0.0422 -0.059,-0.093 -0.051,-0.1543 0.011,-0.061 0.044,-0.1071 0.097,-0.1387 l 2.913,-1.5992 -1.485,-1.486 -1.112,0.304 c -0.008,0.0039 -0.024,0.0062 -0.046,0.0062 -0.054,0 -0.098,-0.0172 -0.132,-0.0523 l -0.551,-0.5547 c -0.038,-0.0461 -0.055,-0.0942 -0.051,-0.1442 0.007,-0.0601 0.032,-0.1039 0.074,-0.132 l 1.445,-1.084 1.084,-1.4441 c 0.035,-0.043 0.08,-0.0668 0.138,-0.075 h 0.011 c 0.053,0 0.097,0.0172 0.132,0.0511 l 0.551,0.55 c 0.05,0.054 0.064,0.1141 0.045,0.179 l -0.304,1.1121 1.486,1.4859 1.6,-2.9129 c 0.023,-0.05 0.064,-0.0812 0.12,-0.0922 0.012,-0.0039 0.025,-0.007 0.04,-0.007 0.046,0 0.083,0.0121 0.109,0.0351 l 0.734,0.5508 c 0.065,0.0532 0.088,0.116 0.069,0.1891 l -0.918,3.991 0.924,0.9231 c 0.29,0.291 0.497,0.6199 0.619,0.9871 z m -3.772,3.4871 c 3.481,0 6.304,-2.8223 6.304,-6.3043 0,-3.4821 -2.823,-6.3039 -6.304,-6.3039 -3.483,0 -6.305,2.8218 -6.305,6.3039 0,3.482 2.822,6.3043 6.305,6.3043 v 0" /><path
       id="path16"
       style="fill:#2c3160;fill-opacity:1;fill-rule:evenodd;stroke:#ffffff;stroke-width:0.1;stroke-opacity:1"
       d="m 98.0609,157.582 c 40.6901,0 74.1741,-30.845 78.3481,-70.4285 0.33,-3.1293 0.364,-3.2004 3.713,-4.9187 0.803,-0.4118 1.59,-0.8453 2.364,-1.3215 1.488,-0.9141 2.943,-1.9715 4.285,-3.0883 1.038,-0.8641 2.167,-1.8719 3.058,-2.8887 2.687,-3.0652 0.977,-7.1543 -3.08,-7.4851 -0.627,-0.0508 -1.208,-0.1446 -1.814,-0.3235 -0.946,-0.2793 -1.941,-0.7324 -2.776,-1.2597 -0.918,-0.5789 -1.735,-1.3055 -2.55,-2.0176 -4.428,-3.8711 -4.437,-1.5117 -5.603,-5.8652 -2.736,-10.209 -7.532,-19.8731 -13.764,-28.4243 0.983,-0.716 1.711,-1.8539 2.169,-3.2058 0.621,-1.8301 1.109,-3.861 1.356,-5.7789 0.257,-1.9903 0.274,-4.1621 -0.04,-6.1481 -0.264,-1.673 -0.811,-3.534 -2.126,-4.69021 -0.812,-0.71601 -1.848,-1.11172 -2.934,-1.10078 -2.266,0.02305 -3.146,1.30195 -4.216,2.87189 -0.557,0.8172 -1.278,1.6672 -2.052,2.282 -0.874,0.693 -2,1.2371 -3.049,1.5981 -0.926,0.3199 -1.693,0.4441 -2.67,0.4718 -0.407,0.0129 -0.814,0.0071 -1.221,-0.0129 C 132.27,5.9 115.855,0 98.0609,0 55.8434,0 21.382,33.2051 19.366,74.9238 c -0.2246,0.3035 -0.473,0.6563 -0.7469,1.0547 -1.2031,1.7528 -2.8836,4.3918 -3.88,8.0039 -3.4512,12.5063 1.1429,27.0866 13.6515,31.6266 0.7188,1.357 1.4707,2.694 2.2653,4.002 -0.7809,-0.065 -1.5633,-0.159 -2.3395,-0.282 -2.7215,-0.433 -5.3648,-1.232 -6.4266,-1.41 -1.0613,-0.178 -0.5398,0.267 0.5903,1.017 1.1293,0.75 2.8672,1.805 3.5437,2.383 0.6774,0.578 0.2942,0.678 -1.4019,0.627 -1.6957,-0.05 -4.7039,-0.251 -7.5039,-1.053 -2.8,-0.8 -5.3914,-2.2 -7.0801,-3.155 -1.68907,-0.956 -2.47501,-1.467 -2.45548,-1.176 0.01914,0.292 0.84336,1.384 1.96172,2.568 1.11836,1.183 2.53206,2.456 3.14886,3.089 0.6172,0.633 0.4383,0.626 -0.8301,0.186 -1.2691,-0.439 -3.62931,-1.31 -5.80313,-2.354 -2.17383,-1.042 -4.1625,-2.258 -5.173051,-2.914 -1.010938,-0.658 -1.04375,-0.757 -0.661719,0.477 0.38125,1.234 1.17813,3.8 3.67813,7.274 7.76487,10.789 19.92927,13.423 32.39417,9.903 1.7121,-0.484 3.248,-1.08 4.6297,-1.746 1.2039,1.268 2.4511,2.491 3.7359,3.676 -0.6637,0.508 -1.2191,0.899 -1.5602,1.157 -0.7488,0.568 -0.464,0.496 0.1789,0.354 0.5981,-0.132 1.5063,-0.324 2.3789,-0.607 0.4293,0.383 0.8618,0.761 1.2993,1.134 -0.4629,0.563 -0.9989,1.178 -1.5723,1.769 -1.3055,1.346 -2.8012,2.571 -4.6625,3.52 -1.8609,0.948 -4.0863,1.62 -4.9645,1.999 -0.8785,0.38 -0.4089,0.467 0.3555,0.527 0.7649,0.06 1.8246,0.094 2.8375,0.023 1.0121,-0.07 1.9762,-0.245 2.4856,-0.204 0.5089,0.041 0.5632,0.297 -0.2508,0.912 -0.8145,0.617 -2.4961,1.592 -4.2445,2.254 -1.7485,0.662 -3.5641,1.01 -4.4278,1.214 -0.8648,0.204 -0.7793,0.264 0.8637,1.08 1.643,0.816 4.8426,2.39 9.7562,1.738 6.2918,-0.835 10.8926,-3.512 14.1516,-7.368 11.8941,7.209 25.8496,11.359 40.7734,11.359 v 0" /><path
       id="path18"
       style="fill:#168046;fill-opacity:1;fill-rule:evenodd;stroke:none;stroke-width:0.1"
       d="m 103.024,13.8602 c -19.8474,3.875 -37.0877,15.5929 -48.0818,32 3.2004,-1.0262 6.5129,-1.8032 9.9141,-2.3051 8.8027,-6.441 19.4261,-10.4813 30.8535,-11.2371 2.6965,-0.1789 4.7732,-0.5559 7.0942,1.073 2.118,1.4879 3.373,3.861 4.265,6.2262 0.335,0.891 0.524,1.4937 0.819,1.5027 0.294,0.009 0.694,-0.5769 1.061,-1.3347 0.993,-2.05 1.259,-4.6801 1.171,-6.9332 -0.048,-1.2282 -0.235,-2.136 -0.299,-2.5551 -0.065,-0.4188 -0.007,-0.3469 0.333,-0.1059 1.383,0.9789 2.038,1.7238 2.903,3.1871 0.26,0.4399 0.251,0.4758 0.918,0.6207 1.584,0.3442 2.978,0.7563 4.54,1.2844 12.277,4.1547 22.739,12.2477 29.882,22.7754 l 2.713,0.4305 c 2.37,0.3761 5.004,0.7277 7.394,0.3894 2.45,-0.3465 4.44,-1.4894 6.137,-3.2816 0.621,-0.6571 1.185,-1.3758 1.702,-2.118 l 1.535,-2.198 c -4.037,-10.2368 -9.558,-18.4547 -17.239,-26.0008 3.124,-0.5313 4.861,-0.15 7.089,1.3301 2.082,-2.4141 2.341,-8.3954 1.848,-11.527 -0.201,-1.2652 -0.531,-1.9961 -0.752,-2.191 -0.221,-0.1942 -0.331,0.15 -0.9,0.984 -0.569,0.8347 -1.596,2.1609 -2.911,3.2058 -1.315,1.045 -2.919,1.8071 -4.292,2.2809 -1.373,0.4742 -2.517,0.6582 -3.916,0.7 -0.674,0.0203 -1.408,0.007 -2.241,-0.0598 -12.483,-9.4062 -24.476,-9.4742 -41.54,-6.1429 z M 49.1293,48.0512 C 62.9043,24.3262 88.6,8.69805 117.456,8.69805 c 2.904,0 5.77,0.16211 8.594,0.46797 -3.521,-1.41719 -7.174,-2.57383 -10.936,-3.44883 -5.478,-1.27422 -11.187,-1.94727 -17.0527,-1.94727 -37.8285,0 -69.1121,27.99998 -74.2695,64.40468 1.7324,-2.3281 3.623,-4.5332 5.6559,-6.5976 5.5949,-5.6821 12.2652,-10.3 19.6816,-13.5258 v 0" /><path
       id="path20"
       style="fill:#f0412a;fill-opacity:1;fill-rule:evenodd;stroke:none;stroke-width:0.1"
       d="m 44.3004,131.108 c 1.0437,1.072 2.1172,2.117 3.223,3.126 1.6289,-1.651 3.1661,-3.715 4.2172,-5.569 1.0922,-1.925 1.6606,-3.623 1.9856,-4.916 0.3246,-1.292 0.4054,-2.178 0.4429,-2.631 0.0372,-0.453 0.0305,-0.473 -0.7293,0.627 -0.7593,1.1 -2.2722,3.318 -4.9171,5.895 -1.1629,1.134 -2.545,2.337 -4.2223,3.468 z m -10.9152,-14.29 c 0.5664,0.962 1.1527,1.909 1.7609,2.843 0.4027,-0.025 0.8,-0.059 1.1898,-0.1 2.5008,-0.265 4.7051,-0.863 6.3934,-1.455 1.6875,-0.591 2.8602,-1.177 3.0352,-1.379 0.1757,-0.201 -0.6446,-0.017 -3.1942,0.199 -2.166,0.183 -5.5793,0.389 -9.1851,-0.108 z m 0.5937,-54.3934 c -2.5996,2.4219 -5,5.0949 -7.1621,8.0012 l -3.6957,4.9676 c -0.0504,1.1269 -0.0801,2.2589 -0.0801,3.3976 0,1.307 0.0336,2.6067 0.0996,3.8977 l 0.0024,-0.0071 c 0.4058,-1.3355 1.0093,-2.6035 1.3547,-3.3074 0.3445,-0.7031 0.4312,-0.8418 0.4339,0.5285 0.0028,1.3711 -0.0781,4.2504 0.3946,7.1235 0.4715,2.873 1.4972,5.7394 2.5035,7.6484 1.0051,1.9098 1.9906,2.8613 2.3879,3.0496 0.3969,0.1887 0.2066,-0.3879 0.066,-1.4984 -0.141,-1.1098 -0.2316,-2.7547 -0.1391,-4.0957 0.0926,-1.3399 0.37,-2.3758 0.6243,-2.1516 0.255,0.2246 0.4894,1.709 1.8765,4.8891 1.9844,4.5492 4.4879,7.8124 7.1621,9.9674 0.6832,-1.832 2.4059,-3.176 4.4828,-3.276 0.1578,-0.008 0.3133,-0.008 0.4676,-10e-4 C 38.1707,89.6203 33.6195,74.1578 33.9789,62.4246 Z m 64.082,91.3864 c 3.9341,0 7.7951,-0.303 11.5641,-0.887 l 4.542,-4.219 c 7.113,-6.605 12.392,-14.73 15.523,-23.664 -0.088,-0.057 -0.174,-0.114 -0.259,-0.172 -1.535,-1.029 -2.76,-2.166 -3.909,-3.609 -0.303,-0.38 -1.143,-1.572 -1.531,-1.811 -0.501,-0.306 -2.747,-0.709 -3.375,-0.853 -22.9113,-5.23 -32.6613,-24.5198 -17.2,-44.0894 1.093,-1.3828 1.929,-2.7793 4.039,-2.7793 1.871,0 2.755,1.1329 3.811,2.3645 1.332,1.5535 2.666,3.127 4.136,4.5531 1.398,1.3574 2.892,2.4957 4.512,3.5707 1.581,1.0485 3.148,1.941 4.907,2.6657 1.587,0.6546 3.251,1.1582 4.952,1.4027 -1.378,-3.9848 -3.172,-7.7762 -5.33,-11.3211 -1.966,0.6609 -3.931,1.1562 -5.403,1.4668 -2.045,0.4324 -3.132,0.5086 -3.437,0.2305 -0.303,-0.2786 0.177,-0.9094 0.983,-2.4543 0.759,-1.4532 1.805,-3.7157 2.502,-6.6719 C 108.286,54.7602 92.1426,46.6461 74.102,46.6461 c -9.0047,0 -17.7168,2.041 -25.5739,5.8289 -5.1218,13.0844 -3.3867,30.8758 2.7223,46.9164 0.8121,-0.6742 1.8406,-1.1 2.9762,-1.1547 1.891,-0.0914 3.5882,0.8715 4.5238,2.3713 1.2437,-3.776 0.8984,-8.7553 -2,-14.4506 -1.3375,-2.6273 -2.1856,-3.5828 -2.1949,-3.8715 -0.009,-0.2879 0.8199,0.0899 1.7496,0.7532 0.9297,0.6629 1.9597,1.6113 2.6129,2.3031 0.6527,0.6918 0.9277,1.1289 1.0187,0.7656 0.0906,-0.3625 -0.0015,-1.5234 -0.7113,-3.2144 -0.7098,-1.6911 -2.0371,-3.9121 -3.6668,-5.7743 -1.6301,-1.8625 -3.5637,-3.3644 -4.4613,-4.1066 -0.8981,-0.7422 -0.7602,-0.7234 -0.1125,-0.5691 0.6472,0.1531 1.8054,0.4414 2.9011,0.8953 1.0965,0.4551 2.1297,1.0754 2.7477,1.4797 0.618,0.4043 0.8199,0.5918 0.7012,0.3203 -0.1188,-0.2727 -0.559,-1.0039 -1.6153,-2.2297 -1.0558,-1.2246 -2.7289,-2.9442 -4.084,-4.0762 -1.3542,-1.1328 -2.391,-1.6765 -2.4285,-1.9531 -0.0371,-0.2774 0.9239,-0.2859 2.7239,-0.1289 14.3175,1.248 26.923,16.341 19.6476,30.3012 -1.7207,3.302 -4.1949,5.977 -5.714,7.533 -1.5188,1.558 -2.0829,1.996 -1.8559,1.99 0.2277,-0.007 1.2445,-0.459 2.5449,-1.247 1.3,-0.788 2.8828,-1.912 4.4078,-3.409 1.5258,-1.498 2.9938,-3.3698 4.1797,-5.3889 1.186,-2.0192 2.0895,-4.186 2.5457,-4.9781 0.4567,-0.793 0.4664,-0.2102 0.3488,0.9363 -0.1179,1.1457 -0.3636,2.8562 -0.35,3.6125 0.0137,0.7566 0.286,0.5594 1.1688,-0.5809 0.8828,-1.1402 2.3758,-3.2226 3.3625,-5.4937 0.9867,-2.2696 1.4684,-4.7262 1.7527,-6.35 0.2852,-1.6246 0.3746,-2.416 0.5555,-2.2465 0.1805,0.1695 0.4527,1.3016 0.625,2.6742 0.1719,1.3731 0.2449,2.9883 0.3262,3.7348 0.0816,0.7472 0.1742,0.6261 0.5711,-0.4442 0.3972,-1.0699 1.0996,-3.089 1.5898,-5.0793 0.4895,-1.9902 0.766,-3.9507 0.8809,-4.9699 0.1152,-1.0172 0.0679,-1.0918 0.6711,-0.1754 0.6027,0.916 1.8574,2.8254 2.7863,6.3426 3.9055,14.7816 -7.6234,29.1525 -22.2953,30.7675 -3.1188,0.343 -5.3926,0.137 -6.525,0.041 -1.1313,-0.095 -1.1219,-0.08 -0.8047,0.141 0.3176,0.22 0.943,0.645 1.9664,1.13 1.0234,0.485 2.4441,1.029 4.2984,1.353 1.8536,0.323 4.1395,0.426 6.1598,0.218 2.0207,-0.208 3.7746,-0.725 4.552,-0.91 0.7765,-0.185 0.5753,-0.037 0.1347,0.308 -0.4402,0.346 -1.1195,0.888 -1.8308,1.326 -0.7118,0.438 -1.4555,0.772 -1.8801,0.972 -0.4238,0.2 -0.5297,0.266 0.1992,0.329 0.7293,0.064 2.293,0.125 3.8809,-0.005 1.5882,-0.129 3.2007,-0.449 4.8277,-1.158 1.6277,-0.709 3.2715,-1.806 3.9945,-2.178 0.7235,-0.372 0.5266,-0.017 0.1528,0.518 -0.3731,0.535 -0.9231,1.248 -1.5164,1.874 -0.5934,0.627 -1.2286,1.165 -1.477,1.521 -0.248,0.356 -0.109,0.53 0.7344,0.329 0.8441,-0.201 2.3926,-0.779 3.7715,-1.569 1.3789,-0.789 2.5879,-1.792 3.1882,-2.25 0.6012,-0.457 0.5946,-0.368 0.2422,1.151 -0.3515,1.519 -1.0476,4.468 -4.1297,7.341 -7.8179,7.285 -17.0574,6.431 -25.6359,1.285 -0.0184,0.435 -0.0473,0.909 -0.0863,1.427 -0.4414,5.801 -1.7989,11.244 -4.4215,15.663 11.2738,6.776 24.4742,10.674 38.5855,10.674 v 0" /><path
       id="path22"
       style="fill:#f36824;fill-opacity:1;fill-rule:evenodd;stroke:none;stroke-width:0.1"
       d="m 128.383,128.43 c 0.47,-1.116 0.906,-2.246 1.307,-3.389 -0.088,-0.057 -0.174,-0.114 -0.259,-0.172 -1.535,-1.029 -2.76,-2.166 -3.909,-3.609 -0.303,-0.38 -1.143,-1.572 -1.531,-1.811 -0.501,-0.306 -2.747,-0.709 -3.375,-0.853 -22.9113,-5.23 -32.6613,-24.5198 -17.2,-44.0894 1.093,-1.3828 1.929,-2.7793 4.039,-2.7793 1.871,0 2.755,1.1329 3.811,2.3645 1.332,1.5535 2.666,3.127 4.136,4.5531 1.398,1.3574 2.892,2.4957 4.512,3.5707 1.581,1.0485 3.148,1.941 4.907,2.6657 1.587,0.6546 3.251,1.1582 4.952,1.4027 -1.378,-3.9848 -3.172,-7.7762 -5.33,-11.3211 -1.966,0.6609 -3.931,1.1562 -5.403,1.4668 -2.045,0.4324 -3.132,0.5086 -3.437,0.2305 -0.303,-0.2786 0.177,-0.9094 0.983,-2.4543 0.759,-1.4532 1.805,-3.7157 2.502,-6.6719 C 108.286,54.7602 92.1426,46.6461 74.102,46.6461 c -9.0055,0 -17.7172,2.043 -25.5743,5.8309 -5.1214,13.0835 -3.3863,30.8746 2.7227,46.9144 0.8121,-0.6742 1.8406,-1.1 2.9762,-1.1547 1.891,-0.0914 3.5882,0.8715 4.5238,2.3713 1.2437,-3.776 0.8984,-8.7553 -2,-14.4506 -1.3375,-2.6273 -2.1856,-3.5828 -2.1949,-3.8715 -0.009,-0.2879 0.8199,0.0899 1.7496,0.7532 0.9297,0.6629 1.9597,1.6113 2.6129,2.3031 0.6527,0.6918 0.9277,1.1289 1.0187,0.7656 0.0906,-0.3625 -0.0015,-1.5234 -0.7113,-3.2144 -0.7098,-1.6911 -2.0371,-3.9121 -3.6668,-5.7743 -1.6301,-1.8625 -3.5637,-3.3644 -4.4613,-4.1066 -0.8981,-0.7422 -0.7602,-0.7234 -0.1125,-0.5691 0.6472,0.1531 1.8054,0.4414 2.9011,0.8953 1.0965,0.4551 2.1297,1.0754 2.7477,1.4797 0.618,0.4043 0.8199,0.5918 0.7012,0.3203 -0.1188,-0.2727 -0.559,-1.0039 -1.6153,-2.2297 -1.0558,-1.2246 -2.7289,-2.9442 -4.084,-4.0762 -1.3542,-1.1328 -2.391,-1.6765 -2.4285,-1.9531 -0.0371,-0.2774 0.9239,-0.2859 2.7239,-0.1289 14.3175,1.248 26.923,16.341 19.6476,30.3012 -1.7207,3.302 -4.1949,5.977 -5.714,7.533 -1.5188,1.558 -2.0829,1.996 -1.8559,1.99 0.2277,-0.007 1.2445,-0.459 2.5449,-1.247 1.3,-0.788 2.8828,-1.912 4.4078,-3.409 1.5258,-1.498 2.9938,-3.3698 4.1797,-5.3889 1.186,-2.0192 2.0895,-4.186 2.5457,-4.9781 0.4567,-0.793 0.4664,-0.2102 0.3488,0.9363 -0.1179,1.1457 -0.3636,2.8562 -0.35,3.6125 0.0137,0.7566 0.286,0.5594 1.1688,-0.5809 0.8828,-1.1402 2.3758,-3.2226 3.3625,-5.4937 0.9867,-2.2696 1.4684,-4.7262 1.7527,-6.35 0.2852,-1.6246 0.3746,-2.416 0.5555,-2.2465 0.1805,0.1695 0.4527,1.3016 0.625,2.6742 0.1719,1.3731 0.2449,2.9883 0.3262,3.7348 0.0816,0.7472 0.1742,0.6261 0.5711,-0.4442 0.3972,-1.0699 1.0996,-3.089 1.5898,-5.0793 0.4895,-1.9902 0.766,-3.9507 0.8809,-4.9699 0.1152,-1.0172 0.0679,-1.0918 0.6711,-0.1754 0.6027,0.916 1.8574,2.8254 2.7863,6.3426 3.9055,14.7816 -7.6234,29.1525 -22.2953,30.7675 -3.1188,0.343 -5.3926,0.137 -6.525,0.041 -1.1313,-0.095 -1.1219,-0.08 -0.8047,0.141 0.3176,0.22 0.943,0.645 1.9664,1.13 1.0234,0.485 2.4441,1.029 4.2984,1.353 1.8536,0.323 4.1395,0.426 6.1598,0.218 2.0207,-0.208 3.7746,-0.725 4.552,-0.91 0.7765,-0.185 0.5753,-0.037 0.1347,0.308 -0.4402,0.346 -1.1195,0.888 -1.8308,1.326 -0.7118,0.438 -1.4555,0.772 -1.8801,0.972 -0.4238,0.2 -0.5297,0.266 0.1992,0.329 0.7293,0.064 2.293,0.125 3.8809,-0.005 1.5882,-0.129 3.2007,-0.449 4.8277,-1.158 1.6277,-0.709 3.2715,-1.806 3.9945,-2.178 0.7235,-0.372 0.5266,-0.017 0.1528,0.518 -0.3731,0.535 -0.9231,1.248 -1.5164,1.874 -0.5934,0.627 -1.2286,1.165 -1.477,1.521 -0.248,0.356 -0.109,0.53 0.7344,0.329 0.8441,-0.201 2.3926,-0.779 3.7715,-1.569 1.3789,-0.789 2.5879,-1.792 3.1882,-2.25 0.6012,-0.457 0.5946,-0.368 0.2422,1.151 -0.3515,1.519 -1.0476,4.468 -4.1297,7.341 -2.5589,2.385 -5.2707,3.897 -8.0617,4.672 15.1207,6.011 32.0786,5.593 46.8256,-1.004 v 0" /><path
       id="path24"
       style="fill:#fab412;fill-opacity:1;fill-rule:evenodd;stroke:none;stroke-width:0.1"
       d="m 133.025,126.92 c -1.6,4.409 -3.681,8.588 -6.18,12.472 4.905,-2.77 9.346,-6.266 13.178,-10.341 -0.563,0.068 -1.151,0.017 -1.742,-0.131 -1.179,-0.294 -2.284,-0.676 -3.404,-1.152 -0.607,-0.258 -1.23,-0.543 -1.852,-0.848 z m 37.937,-30.3587 c -4.38,4.9837 -9.957,9.9727 -15.583,13.5137 -5.316,15.592 -17.745,28.949 -32.921,35.321 -1.773,2.149 -3.685,4.178 -5.725,6.073 26.476,-6.782 47.745,-28.216 54.229,-54.9077 z M 143.33,125.196 c 2.971,-3.799 5.457,-7.997 7.364,-12.498 l -0.212,0.105 c -2.141,1.049 -4.33,1.982 -6.537,2.882 -0.367,0.15 -0.739,0.308 -1.112,0.44 -0.596,0.211 -1.208,0.303 -1.801,0.263 0.021,1.178 0.172,2.406 0.442,3.487 0.278,1.112 0.701,2.101 1.211,3.12 0.362,0.724 0.609,1.465 0.645,2.201 z m -41.389,-16.641 c -7.9687,-8.7011 -8.5859,-21.3144 1.475,-34.0484 1.093,-1.3828 1.929,-2.7793 4.039,-2.7793 1.871,0 2.755,1.1329 3.811,2.3645 1.332,1.5535 2.666,3.127 4.136,4.5531 1.398,1.3574 2.892,2.4957 4.512,3.5707 1.581,1.0485 3.148,1.941 4.907,2.6657 1.587,0.6546 3.251,1.1582 4.952,1.4027 -1.378,-3.9848 -3.172,-7.7762 -5.33,-11.3211 l -0.004,0.0019 -0.088,0.0293 -0.04,0.0137 -0.052,0.0164 -0.076,0.0254 -0.016,0.0059 -0.092,0.0293 -0.02,0.007 -0.072,0.0234 -0.056,0.0176 -0.036,0.0117 -0.092,0.0293 h -0.001 l -0.091,0.0293 -0.036,0.0117 -0.056,0.0176 -0.071,0.0223 -0.021,0.0058 -0.091,0.0293 -0.016,0.004 -0.075,0.0234 -0.052,0.0156 -0.04,0.0125 -0.086,0.0266 -0.005,0.0011 -0.091,0.0274 -0.031,0.0098 -0.06,0.0175 -0.065,0.0196 -0.025,0.0066 -0.091,0.0274 -0.01,0.0031 -0.08,0.0234 -0.045,0.0137 -0.045,0.0125 -0.08,0.0234 -0.01,0.002 -0.09,0.0254 -0.025,0.0078 -0.064,0.0176 -0.06,0.0175 -0.028,0.0078 -0.089,0.0247 -0.007,0.0015 -0.082,0.0238 -0.041,0.0106 -0.047,0.0137 -0.075,0.0207 -0.013,0.0027 -0.087,0.0246 -0.021,0.0059 -0.067,0.0176 -0.054,0.0144 -0.033,0.009 -0.086,0.0234 h -0.002 l -0.084,0.0223 -0.036,0.0098 -0.05,0.0128 -0.068,0.0176 -0.017,0.0047 -0.085,0.0227 -0.017,0.0039 -0.068,0.0176 -0.049,0.0125 -0.035,0.0089 -0.082,0.0204 -0.002,0.0011 -0.083,0.0203 -0.03,0.0078 -0.053,0.0137 -0.062,0.0156 -0.02,0.0051 -0.082,0.0203 -0.012,0.0032 -0.07,0.0164 -0.043,0.0105 -0.038,0.009 -0.074,0.0187 -0.006,8e-4 -0.08,0.0196 -0.025,0.0058 -0.055,0.0125 -0.055,0.0141 -0.024,0.0047 -0.077,0.0195 -0.008,0.0012 -0.07,0.0164 -0.038,0.009 -0.04,0.0097 -0.066,0.0145 -0.01,0.0027 -0.076,0.0168 -0.02,0.0051 -0.055,0.0125 -0.049,0.0109 -0.026,0.0059 -0.074,0.0164 -0.003,0.0012 -0.07,0.0156 -0.033,0.0066 -0.04,0.009 -0.06,0.0137 -0.012,0.0019 -0.072,0.0157 -0.015,0.0027 -0.055,0.0129 -0.043,0.0086 -0.028,0.0058 -0.069,0.0149 c -2.045,0.4324 -3.132,0.5086 -3.437,0.2305 -0.303,-0.2786 0.177,-0.9094 0.983,-2.4543 l 0.036,-0.0684 0.002,-0.0047 0.034,-0.0656 0.005,-0.0078 0.032,-0.0633 0.007,-0.0129 0.03,-0.0594 0.009,-0.0175 0.028,-0.0559 0.012,-0.0223 0.026,-0.0519 0.014,-0.0282 0.024,-0.048 0.016,-0.0332 0.022,-0.0438 0.019,-0.0382 0.019,-0.0399 0.022,-0.0441 0.017,-0.0352 0.025,-0.0496 0.014,-0.0305 0.027,-0.0554 0.013,-0.0266 0.029,-0.0605 0.011,-0.0215 0.032,-0.0684 0.008,-0.0156 0.034,-0.0742 0.006,-0.0117 0.037,-0.0801 0.003,-0.0059 0.04,-0.0871 v 0 l 0.041,-0.0887 0.003,-0.0046 0.038,-0.084 0.005,-0.011 0.036,-0.0808 0.008,-0.0156 0.033,-0.0754 0.01,-0.0223 0.032,-0.0715 0.012,-0.0273 0.029,-0.0664 0.015,-0.0352 0.026,-0.0605 0.018,-0.0411 0.024,-0.0554 0.02,-0.0469 0.021,-0.05 0.023,-0.0535 0.019,-0.0449 0.025,-0.0606 0.017,-0.039 0.041,-0.1008 0.031,-0.075 0.011,-0.0274 0.033,-0.082 0.009,-0.0219 0.035,-0.0887 0.006,-0.0144 0.038,-0.0969 0.004,-0.0086 0.04,-0.1047 0.001,-0.0019 0.042,-0.1074 0.002,-0.0047 0.039,-0.1035 0.005,-0.0118 0.036,-0.0976 0.007,-0.0188 0.034,-0.0925 0.01,-0.0254 0.031,-0.086 0.013,-0.0332 0.028,-0.0801 0.014,-0.0402 0.027,-0.073 0.016,-0.0481 0.024,-0.0672 0.02,-0.0558 0.021,-0.0606 0.021,-0.0625 0.018,-0.0547 0.04,-0.1179 0.027,-0.0793 0.014,-0.0399 0.028,-0.0879 0.011,-0.0324 0.03,-0.0957 0.009,-0.0262 0.033,-0.1035 0.005,-0.0187 0.035,-0.1133 0.004,-0.0106 0.037,-0.121 0.001,-0.004 0.038,-0.125 0.001,-0.005 0.037,-0.1219 0.003,-0.0117 0.034,-0.1164 0.006,-0.0196 0.031,-0.1082 0.008,-0.0285 0.028,-0.1023 0.011,-0.0364 0.026,-0.0937 0.012,-0.0457 0.023,-0.0871 0.015,-0.0535 0.021,-0.0793 0.016,-0.0625 0.019,-0.0711 0.018,-0.0715 0.016,-0.0633 0.02,-0.0801 0.014,-0.0558 0.022,-0.0899 0.011,-0.0476 0.024,-0.0989 0.009,-0.039 C 108.286,54.7602 92.1426,46.6461 74.102,46.6461 c -2.8247,0 -5.6207,0.2019 -8.3696,0.5949 -1.8328,8.8371 -1.3726,18.0215 1.3203,26.6242 3.8024,3.7286 6.3332,8.5786 6.6203,13.7481 1.1032,1.6301 2.3059,3.2101 3.6079,4.7312 0.1593,-0.33 0.2957,-0.6015 0.4058,-0.7925 0.4567,-0.793 0.4664,-0.2102 0.3488,0.9363 -0.0207,0.1992 -0.0445,0.4152 -0.0707,0.6414 0.4813,0.5406 0.9774,1.0723 1.4848,1.5973 0.8652,-1.1903 1.9781,-2.8852 2.7672,-4.7008 0.9867,-2.2696 1.4684,-4.7262 1.7527,-6.35 0.2852,-1.6246 0.3746,-2.416 0.5555,-2.2465 0.1805,0.1695 0.4527,1.3016 0.625,2.6742 0.1719,1.3731 0.2449,2.9883 0.3262,3.7348 0.0816,0.7472 0.1742,0.6261 0.5711,-0.4442 0.3972,-1.0699 1.0996,-3.089 1.5898,-5.0793 0.4895,-1.9902 0.766,-3.9507 0.8809,-4.9699 0.1152,-1.0172 0.0679,-1.0918 0.6711,-0.1754 0.6027,0.916 1.8574,2.8254 2.7863,6.3426 1.7934,6.7863 0.3316,13.4848 -3.1922,18.9025 4.1512,2.692 8.5824,4.735 13.1578,6.14 v 0" /><path
       id="path26"
       style="fill:#ffffff;fill-opacity:1;fill-rule:evenodd;stroke:none;stroke-width:0.1"
       d="m 97.4207,146.442 c 2.7643,-8.999 1.0137,-7.249 10.0123,-10.013 -8.9986,-2.764 -7.248,-1.014 -10.0123,-10.013 -2.7637,8.999 -1.0144,7.249 -10.0125,10.013 8.9984,2.764 7.2484,1.015 10.0125,10.013 z M 110.34,135.279 c 1.416,-4.611 0.519,-3.714 5.13,-5.13 -4.611,-1.417 -3.714,-0.52 -5.13,-5.131 -1.417,4.611 -0.521,3.714 -5.132,5.131 4.612,1.416 3.715,0.519 5.132,5.13 z m 66.503,-68.2645 c 0.754,0.6593 1.829,1.623 3.072,2.4082 1.243,0.7843 2.653,1.3886 3.83,1.7363 1.177,0.3476 2.121,0.4375 2.664,0.4816 0.542,0.0438 0.682,0.043 0.259,0.5254 -0.423,0.4824 -1.411,1.45 -2.585,2.4278 -1.175,0.9773 -2.535,1.9636 -3.798,2.739 -1.263,0.7766 -2.427,1.3422 -3.017,1.6301 -0.589,0.2875 -0.604,0.2961 -0.662,-0.5402 -0.059,-0.836 -0.161,-2.5164 -0.329,-4.1387 -0.168,-1.6211 -0.403,-3.1836 -0.624,-4.5012 -0.221,-1.3172 -0.429,-2.3883 -0.537,-2.9832 -0.108,-0.5937 -0.116,-0.7109 -0.081,-0.823 0.035,-0.1114 0.114,-0.2188 0.369,-0.0957 0.255,0.1226 0.685,0.4754 1.439,1.1336 z m -4.025,5.4503 c -0.488,-5.8234 -1.642,-11.457 -3.383,-16.8269 -0.637,0.9121 -1.327,1.7812 -2.057,2.5516 -4.867,5.1394 -10.355,5.0574 -16.86,4.0234 l -1.778,-0.2824 0.016,0.7148 c 0.017,0.7149 0.05,2.1445 0.516,3.9406 1.09,4.2071 3.47,7.9121 7.283,10.1094 1.961,1.1309 4.356,1.9617 5.553,2.3774 l 1.197,0.416 -0.399,0.0996 c -0.399,0.0996 -1.197,0.2996 -2.544,0.2328 -1.347,-0.0664 -3.242,-0.3988 -4.19,-0.5652 l -0.964,-0.1661 c -0.017,0 -0.037,0.0141 -1.248,1.1137 -12.809,11.643 -27.669,13.9547 -41.185,1.1473 -1.732,-1.6418 -3.475,-3.757 -4.372,-4.8051 -0.898,-1.0477 -0.931,-1.0477 -0.948,-1.0477 -0.017,0 -0.017,0 -1.081,1.3465 -13.6248,17.2434 -5.41,33.3985 15.081,38.0765 2.111,0.482 3.475,0.681 4.506,1.313 1.031,0.632 1.729,1.696 2.511,2.677 2.383,2.993 7.038,5.431 10.724,6.352 0.466,0.116 0.466,0.116 0.116,-0.583 -0.349,-0.697 -1.047,-2.094 -1.496,-3.89 -1.451,-5.805 -0.066,-11.813 4.123,-16.161 1.314,-1.364 2.81,-2.328 3.575,-2.811 0.765,-0.482 0.798,-0.482 0.266,0.4 -0.532,0.88 -1.629,2.643 -2.444,4.339 -0.815,1.696 -1.347,3.326 -1.646,4.34 -0.299,1.014 -0.366,1.414 -0.399,1.613 -0.033,0.199 -0.033,0.199 1.23,-0.316 1.264,-0.515 3.791,-1.547 6.302,-2.777 2.51,-1.23 5.005,-2.66 8.031,-4.938 2.216,-1.668 4.717,-3.791 7.06,-6.029 9.896,-9.4547 10.018,-12.6801 8.904,-25.9852 v 0" /><path
       id="path28"
       style="fill:#e0dddb;fill-opacity:1;fill-rule:evenodd;stroke:none;stroke-width:0.1"
       d="m 116.82,108.432 c -1.779,-0.798 -3.608,-1.829 -5.155,-3.093 -1.545,-1.264 -2.809,-2.76 -3.74,-4.223 -0.931,-1.4633 -1.53,-2.893 -1.48,-3.3754 0.05,-0.482 0.748,-0.0164 2.062,0.9145 1.313,0.9312 3.241,2.3279 5.17,3.2419 1.929,0.915 3.858,1.347 5.304,1.464 1.447,0.116 2.411,-0.084 2.994,-0.316 0.582,-0.233 0.781,-0.499 0.498,-0.915 -0.282,-0.415 -1.047,-0.981 -2.278,-2.012 -1.23,-1.0309 -2.926,-2.527 -4.389,-4.2231 -1.463,-1.6957 -2.694,-3.591 -3.642,-5.3867 -0.947,-1.7961 -1.612,-3.4918 -1.961,-4.4727 -0.35,-0.9816 -0.383,-1.2472 -0.217,-1.314 0.167,-0.0664 0.532,0.0668 1.679,0.898 1.148,0.8317 3.077,2.3614 5.288,3.741 2.211,1.3801 4.706,2.6106 7.316,3.3922 2.61,0.7817 5.337,1.1137 8.114,1.0641 2.777,-0.05 5.603,-0.4824 7.05,-0.6816 1.446,-0.1997 1.513,-0.1664 1.446,0.0496 -0.066,0.2164 -0.266,0.6152 -1.446,1.33 -1.181,0.7149 -3.342,1.7461 -5.387,2.5606 -2.046,0.8152 -3.974,1.4137 -4.739,1.8125 -0.765,0.3988 -0.366,0.5988 0.715,1.2641 1.081,0.665 2.843,1.795 3.807,2.411 0.965,0.615 1.131,0.715 1.031,0.914 -0.099,0.2 -0.466,0.499 -1.812,0.981 -1.347,0.482 -3.675,1.147 -5.703,1.596 -2.029,0.449 -3.758,0.682 -4.872,0.798 -1.114,0.117 -1.613,0.117 -1.353,0.472 0.26,0.355 1.279,1.065 2.412,1.595 1.133,0.53 2.38,0.879 2.727,1.128 0.347,0.248 -0.205,0.396 -1.055,0.432 -0.851,0.035 -1.999,-0.041 -3.437,-0.363 -1.438,-0.321 -3.168,-0.886 -4.947,-1.684 v 0" /><path
       id="path30"
       style="fill:#0aa44d;fill-opacity:1;fill-rule:evenodd;stroke:none;stroke-width:0.1"
       d="M 126.05,9.16602 C 122.529,7.74883 118.876,6.59219 115.114,5.71719 77.1684,2.57891 41.8598,25.4852 29.4477,61.577 35.0426,55.8949 41.7129,51.277 49.1293,48.0512 62.9043,24.3262 88.6,8.69805 117.456,8.69805 c 2.904,0 5.77,0.16211 8.594,0.46797 z M 63.6945,43.7371 c 0.3864,-0.0633 0.7739,-0.125 1.1618,-0.182 8.8027,-6.441 19.4261,-10.4813 30.8535,-11.2371 2.6965,-0.1789 4.7732,-0.5559 7.0942,1.073 2.118,1.4879 3.373,3.861 4.265,6.2262 0.335,0.891 0.524,1.4937 0.819,1.5027 0.294,0.009 0.694,-0.5769 1.061,-1.3347 0.993,-2.05 1.259,-4.6801 1.171,-6.9332 -0.047,-1.2282 -0.235,-2.136 -0.299,-2.5551 -0.065,-0.418 -0.007,-0.3457 0.333,-0.1059 1.383,0.9789 2.038,1.7238 2.903,3.1871 0.26,0.4399 0.251,0.4758 0.918,0.6207 1.584,0.3442 2.978,0.7563 4.54,1.2844 12.277,4.1547 22.739,12.2477 29.882,22.7754 l 2.713,0.4305 c 2.37,0.3761 5.005,0.7277 7.394,0.3894 2.45,-0.3465 4.44,-1.4894 6.137,-3.2816 0.621,-0.6571 1.186,-1.3758 1.702,-2.118 l 1.535,-2.1969 c -4.037,-10.2379 -9.558,-18.4558 -17.239,-26.0019 3.125,-0.5313 4.861,-0.15 7.089,1.3301 2.082,-2.4141 2.342,-8.3954 1.848,-11.527 -0.201,-1.2641 -0.531,-1.9961 -0.751,-2.191 -0.222,-0.1942 -0.332,0.15 -0.9,0.984 -0.57,0.8347 -1.597,2.1609 -2.912,3.2058 -1.315,1.045 -2.919,1.8071 -4.292,2.2809 -1.373,0.4742 -2.517,0.6582 -3.916,0.7 -0.674,0.0203 -1.409,0.007 -2.241,-0.0598 -0.587,-0.4429 -1.174,-0.8652 -1.76,-1.2672 C 132.582,13.652 122.013,14.1 108.046,16.827 90.318,20.2879 74.6691,30.0082 63.6945,43.7371 v 0" /><path
       id="path32"
       style="fill:#1f6eaf;fill-opacity:1;fill-rule:evenodd;stroke:none;stroke-width:0.1"
       d="m 72.1859,42.9051 c 0.6368,-0.0192 1.275,-0.0289 1.9161,-0.0289 18.1269,0 34.455,7.6988 45.895,20.0035 2.28,2.4523 2.823,2.8613 1.909,6.3801 -0.251,0.9644 -0.614,1.7957 -0.945,2.4297 -0.33,0.6335 -0.629,1.071 -0.618,1.3125 0.011,0.239 0.331,0.2832 1.028,0.03 0.697,-0.2527 1.771,-0.8015 2.712,-1.4129 0.942,-0.6105 1.75,-1.2824 2.445,-2.0031 0.654,-0.6765 1.26,-1.4394 1.779,-2.2254 0.543,1.284 0.381,4.1211 -0.776,5.4004 3.021,4.627 4.522,8.2102 6.245,13.5762 1.773,-0.1594 3.563,-0.5442 5.213,-1.0328 2.459,-0.7289 4.697,-1.7395 6.813,-3.1973 1.978,-1.3633 3.77,-3.0012 5.526,-4.6344 -0.97,-0.9043 -1.837,-1.9187 -2.603,-3.0527 -1.386,-2.0496 -2.483,-4.5273 -3.103,-6.918 -0.416,-1.6062 -0.597,-3.1472 -0.635,-4.7996 l -0.085,-3.6496 c -7.448,-10.518 -18.468,-18.3246 -31.293,-21.6578 -0.676,2.0039 -1.569,3.9602 -2.691,5.832 -1.19,1.9828 -2.487,3.5192 -3.443,3.4961 -2.002,-0.0492 -3.115,-7.7051 -7.174,-11.1031 -0.224,-0.0031 -0.4487,-0.0051 -0.6737,-0.0051 -9.9839,0 -19.35,2.641 -27.4414,7.2602 v 0" /><path
       id="path34"
       style="fill:#1d8bd4;fill-opacity:1;fill-rule:evenodd;stroke:none;stroke-width:0.1"
       d="m 86.6133,44.1262 c 13.0613,2.6468 24.6477,9.357 33.3837,18.7535 2.28,2.4523 2.823,2.8613 1.909,6.3789 -0.251,0.9656 -0.614,1.7969 -0.945,2.4309 -0.33,0.6335 -0.629,1.071 -0.617,1.3113 0.01,0.2402 0.33,0.2844 1.027,0.0312 0.697,-0.2527 1.771,-0.8027 2.712,-1.4129 0.942,-0.6105 1.75,-1.2824 2.445,-2.0031 0.654,-0.6765 1.261,-1.4394 1.779,-2.2254 0.543,1.2852 0.381,4.1211 -0.776,5.4004 3.021,4.627 4.521,8.2102 6.245,13.5762 1.774,-0.1594 3.563,-0.5438 5.213,-1.0328 2.459,-0.7297 4.697,-1.7395 6.813,-3.1973 1.978,-1.3633 3.77,-3.0012 5.526,-4.6344 -0.97,-0.9043 -1.837,-1.9187 -2.603,-3.0527 -1.386,-2.0496 -2.483,-4.5273 -3.103,-6.918 -0.416,-1.6062 -0.597,-3.1472 -0.635,-4.7996 l -0.085,-3.6496 c -3.412,-4.8187 -7.573,-9.0668 -12.315,-12.5777 -6.121,-3.2582 -12.937,-5.3813 -20.168,-6.0903 -0.445,0.9661 -0.944,1.9141 -1.501,2.8422 -1.19,1.9828 -2.487,3.5192 -3.443,3.4961 -1.303,-0.0312 -2.23,-3.2859 -3.836,-6.491 -5.989,0.3731 -11.7163,1.7098 -17.0257,3.8641 v 0" /><path
       id="path36"
       style="fill:#2c3160;fill-opacity:1;fill-rule:nonzero;stroke:#ffffff;stroke-width:0.1;stroke-opacity:1"
       d="m 226.077,101.895 h 10.205 c 1.484,0 2.315,0.784 2.495,2.309 l 2.307,18.534 c 0.024,0.248 0.028,0.474 0.015,0.66 -0.078,1.093 -0.757,1.649 -1.994,1.649 h -10.204 z m 64.3,23.153 -2.823,-23.152 h 10.204 c 1.485,0 2.316,0.784 2.495,2.309 l 2.308,18.534 c 0.023,0.247 0.028,0.474 0.015,0.659 -0.079,1.093 -0.757,1.65 -1.994,1.65 z m -4.889,-39.8714 -3.727,-30.1407 h -19.317 l 10.666,86.6691 h 32.861 c 7.013,-0.041 11.55,-1.216 13.613,-3.566 1.393,-1.609 2.188,-3.793 2.386,-6.577 0.098,-1.36 0.043,-2.907 -0.145,-4.597 l -2.611,-20.946 c -0.61,-5.03 -3.271,-8.7612 -7.965,-11.1733 -1.181,-0.4953 -1.81,-0.9277 -1.904,-1.3406 l 0.005,-0.0613 c 0.021,-0.3098 0.566,-0.7219 1.59,-1.1958 3.645,-1.9796 5.6,-4.8242 5.863,-8.5148 0.061,-0.8445 0.042,-1.7312 -0.057,-2.659 L 313.53,55.0359 h -19.317 l 3.457,27.8528 c 0.026,0.2265 0.03,0.4535 0.015,0.6593 -0.078,1.0926 -0.755,1.6286 -1.992,1.6286 z m 62.705,56.5284 h 30.737 l 5.044,-86.6691 h -19.337 l -0.796,16.3692 h -17.812 l -4.874,-16.3692 h -19.337 z m 13.626,-14.74 -10.811,-38.9431 h 11.896 z m 40.613,14.74 H 421.77 L 411.084,55.0359 h -19.317 z m 43.727,0 h 30.738 l 5.044,-86.6691 h -19.338 l -0.796,16.3692 h -17.811 l -4.875,-16.3692 h -19.337 z m 13.626,-14.74 -10.81,-38.9431 h 11.896 z M 224.007,85.2383 220.285,55.0359 h -19.317 l 10.665,86.6691 h 33.459 c 7.013,-0.042 11.549,-1.217 13.613,-3.567 1.393,-1.608 2.208,-3.793 2.407,-6.576 0.097,-1.361 0.043,-2.907 -0.167,-4.598 l -3.333,-26.9855 c -0.652,-5.0305 -2.283,-8.7617 -4.935,-11.1734 -2.698,-2.3508 -7.541,-3.5258 -14.548,-3.5668 h -14.122 v 0" /><path
       id="path38"
       style="fill:#2c3160;fill-opacity:1;fill-rule:evenodd;stroke:none;stroke-width:0.1"
       d="m 301.014,38.9281 c 0.177,-0.298 0.266,-0.648 0.266,-1.0461 0,-0.6129 -0.183,-1.123 -0.547,-1.5308 -0.365,-0.409 -0.892,-0.65 -1.58,-0.7223 v -1.0488 h -0.877 v 1.0429 c -1.149,0.118 -1.86,0.786 -2.133,2.002 l 1.356,0.3531 c 0.126,-0.7633 0.542,-1.1449 1.249,-1.1449 0.331,0 0.575,0.0809 0.731,0.2438 0.155,0.164 0.232,0.3609 0.232,0.5929 0,0.2403 -0.077,0.4223 -0.232,0.5449 -0.156,0.1243 -0.502,0.2801 -1.039,0.4704 -0.483,0.1668 -0.86,0.332 -1.131,0.4968 -0.271,0.1629 -0.492,0.391 -0.662,0.686 -0.168,0.2949 -0.254,0.639 -0.254,1.0289 0,0.5133 0.152,0.9761 0.454,1.3871 0.303,0.409 0.778,0.6601 1.429,0.7519 v 0.8102 h 0.877 v -0.8109 c 0.98,-0.1172 1.616,-0.6723 1.904,-1.6653 l -1.209,-0.4949 c -0.235,0.6809 -0.6,1.0199 -1.093,1.0199 -0.248,0 -0.447,-0.0758 -0.596,-0.2269 -0.15,-0.1532 -0.226,-0.3371 -0.226,-0.5539 0,-0.2211 0.072,-0.3903 0.218,-0.5082 0.143,-0.1168 0.453,-0.2629 0.928,-0.4379 0.521,-0.1899 0.93,-0.3692 1.225,-0.5391 0.297,-0.1687 0.533,-0.4039 0.71,-0.7008 z m -2.303,6.5969 c 3.487,0 6.313,-2.8262 6.313,-6.3121 0,-3.4867 -2.826,-6.3141 -6.313,-6.3141 -3.486,0 -6.313,2.8274 -6.313,6.3141 0,3.4859 2.827,6.3121 6.313,6.3121 v 0" /><g
       id="g40"
       style="stroke:#ffffff;stroke-opacity:1;stroke-width:0.02475;stroke-miterlimit:4;stroke-dasharray:none"><text
         id="text44"
         style="font-variant:normal;font-weight:900;font-size:16px;font-family:Arial;-inkscape-font-specification:Arial-Black;writing-mode:lr-tb;fill:#2c3160;fill-opacity:1;fill-rule:nonzero;stroke:#ffffff;stroke-opacity:1;stroke-width:0.02475;stroke-miterlimit:4;stroke-dasharray:none"
         transform="matrix(1,0,0,-1,199.249,33.4398)"><tspan
           id="tspan42"
           sodipodi:role="line"
           y="0"
           x="0 10.578588 14.938448 26.407663 30.768013 42.236813 46.59716 58.94965 63.309021 73.888123 78.247498 88.826591 110.62641 122.09521 126.45554 137.03363 141.39398 151.97308 160.69281 173.94281 182.66255 193.24165 197.60197 209.95358 214.3139 225.7827 230.14308 235.39409 239.75348 250.33258 254.69197 268.81793">T R A N S P R T E &amp; T U R I S M </tspan></text></g><g
       id="g46"><text
         id="text50"
         style="font-variant:normal;font-weight:900;font-size:14px;font-family:Arial;-inkscape-font-specification:Arial-Black;writing-mode:lr-tb;fill:#f0412a;fill-opacity:1;fill-rule:nonzero;stroke:none"
         transform="matrix(1,0,0,-1,233.592,13.7809)"><tspan
           id="tspan48"
           sodipodi:role="line"
           y="0"
           x="0 10.275398 14.083029 24.891611 28.699217 35.324211 39.131817 47.616203 55.246063 63.729473 72.21386 76.021469 84.505875 92.989288 101.47367 105.28812 109.09669 117.58011 126.0645 134.54791 138.36333 141.39848 145.21391 153.69731 162.1817 170.66513 179.14948 182.96391 186.77251 190.58694 199.07132">C.N.P.J 27.124 .655 / 0002 - 09</tspan></text></g><rect
       style="opacity:1;fill:#000080;fill-opacity:0;stroke:#ffffff;stroke-width:0.75;stroke-opacity:1"
       id="rect905"
       width="16.563038"
       height="15.407953"
       x="-69.279907"
       y="-184.03227"
       transform="scale(1,-1)" /></g></svg>
